<mxfile host="app.diagrams.net" agent="Mozilla/5.0 (X11; Linux x86_64) AppleWebKit/537.36 (KHTML, like Gecko) Chrome/129.0.0.0 Safari/537.36" version="24.7.8">
  <diagram name="Page-1" id="79ASWJVpfwQT944X2djE">
    <mxGraphModel dx="1195" dy="655" grid="1" gridSize="10" guides="1" tooltips="1" connect="1" arrows="1" fold="1" page="1" pageScale="1" pageWidth="850" pageHeight="1100" math="0" shadow="0">
      <root>
        <mxCell id="0" />
        <mxCell id="1" parent="0" />
        <mxCell id="SnXfCUuTCeVSRkXIkkFU-98" value="" style="rounded=0;whiteSpace=wrap;html=1;fillColor=#f8cecc;strokeColor=#b85450;" vertex="1" parent="1">
          <mxGeometry x="10" y="450" width="770" height="180" as="geometry" />
        </mxCell>
        <mxCell id="SnXfCUuTCeVSRkXIkkFU-90" value="" style="rounded=0;whiteSpace=wrap;html=1;fillColor=#dae8fc;strokeColor=#6c8ebf;" vertex="1" parent="1">
          <mxGeometry x="10" y="270" width="770" height="180" as="geometry" />
        </mxCell>
        <mxCell id="HkPxLdzzHPnUdWTfFzcf-1" value="" style="shape=table;startSize=0;container=1;collapsible=0;childLayout=tableLayout;fontSize=16;" parent="1" vertex="1">
          <mxGeometry x="40" y="280" width="60" height="160" as="geometry" />
        </mxCell>
        <mxCell id="HkPxLdzzHPnUdWTfFzcf-23" style="shape=tableRow;horizontal=0;startSize=0;swimlaneHead=0;swimlaneBody=0;strokeColor=inherit;top=0;left=0;bottom=0;right=0;collapsible=0;dropTarget=0;fillColor=none;points=[[0,0.5],[1,0.5]];portConstraint=eastwest;fontSize=16;" parent="HkPxLdzzHPnUdWTfFzcf-1" vertex="1">
          <mxGeometry width="60" height="26" as="geometry" />
        </mxCell>
        <mxCell id="HkPxLdzzHPnUdWTfFzcf-24" value="1" style="shape=partialRectangle;html=1;whiteSpace=wrap;connectable=0;strokeColor=inherit;overflow=hidden;fillColor=none;top=0;left=0;bottom=0;right=0;pointerEvents=1;fontSize=16;" parent="HkPxLdzzHPnUdWTfFzcf-23" vertex="1">
          <mxGeometry width="30" height="26" as="geometry">
            <mxRectangle width="30" height="26" as="alternateBounds" />
          </mxGeometry>
        </mxCell>
        <mxCell id="HkPxLdzzHPnUdWTfFzcf-25" value="2" style="shape=partialRectangle;html=1;whiteSpace=wrap;connectable=0;strokeColor=inherit;overflow=hidden;fillColor=none;top=0;left=0;bottom=0;right=0;pointerEvents=1;fontSize=16;" parent="HkPxLdzzHPnUdWTfFzcf-23" vertex="1">
          <mxGeometry x="30" width="30" height="26" as="geometry">
            <mxRectangle width="30" height="26" as="alternateBounds" />
          </mxGeometry>
        </mxCell>
        <mxCell id="HkPxLdzzHPnUdWTfFzcf-20" style="shape=tableRow;horizontal=0;startSize=0;swimlaneHead=0;swimlaneBody=0;strokeColor=inherit;top=0;left=0;bottom=0;right=0;collapsible=0;dropTarget=0;fillColor=none;points=[[0,0.5],[1,0.5]];portConstraint=eastwest;fontSize=16;" parent="HkPxLdzzHPnUdWTfFzcf-1" vertex="1">
          <mxGeometry y="26" width="60" height="28" as="geometry" />
        </mxCell>
        <mxCell id="HkPxLdzzHPnUdWTfFzcf-21" value="2" style="shape=partialRectangle;html=1;whiteSpace=wrap;connectable=0;strokeColor=inherit;overflow=hidden;fillColor=none;top=0;left=0;bottom=0;right=0;pointerEvents=1;fontSize=16;" parent="HkPxLdzzHPnUdWTfFzcf-20" vertex="1">
          <mxGeometry width="30" height="28" as="geometry">
            <mxRectangle width="30" height="28" as="alternateBounds" />
          </mxGeometry>
        </mxCell>
        <mxCell id="HkPxLdzzHPnUdWTfFzcf-22" value="1" style="shape=partialRectangle;html=1;whiteSpace=wrap;connectable=0;strokeColor=inherit;overflow=hidden;fillColor=none;top=0;left=0;bottom=0;right=0;pointerEvents=1;fontSize=16;" parent="HkPxLdzzHPnUdWTfFzcf-20" vertex="1">
          <mxGeometry x="30" width="30" height="28" as="geometry">
            <mxRectangle width="30" height="28" as="alternateBounds" />
          </mxGeometry>
        </mxCell>
        <mxCell id="HkPxLdzzHPnUdWTfFzcf-17" style="shape=tableRow;horizontal=0;startSize=0;swimlaneHead=0;swimlaneBody=0;strokeColor=inherit;top=0;left=0;bottom=0;right=0;collapsible=0;dropTarget=0;fillColor=none;points=[[0,0.5],[1,0.5]];portConstraint=eastwest;fontSize=16;" parent="HkPxLdzzHPnUdWTfFzcf-1" vertex="1">
          <mxGeometry y="54" width="60" height="26" as="geometry" />
        </mxCell>
        <mxCell id="HkPxLdzzHPnUdWTfFzcf-18" value="2" style="shape=partialRectangle;html=1;whiteSpace=wrap;connectable=0;strokeColor=inherit;overflow=hidden;fillColor=none;top=0;left=0;bottom=0;right=0;pointerEvents=1;fontSize=16;" parent="HkPxLdzzHPnUdWTfFzcf-17" vertex="1">
          <mxGeometry width="30" height="26" as="geometry">
            <mxRectangle width="30" height="26" as="alternateBounds" />
          </mxGeometry>
        </mxCell>
        <mxCell id="HkPxLdzzHPnUdWTfFzcf-19" value="3" style="shape=partialRectangle;html=1;whiteSpace=wrap;connectable=0;strokeColor=inherit;overflow=hidden;fillColor=none;top=0;left=0;bottom=0;right=0;pointerEvents=1;fontSize=16;" parent="HkPxLdzzHPnUdWTfFzcf-17" vertex="1">
          <mxGeometry x="30" width="30" height="26" as="geometry">
            <mxRectangle width="30" height="26" as="alternateBounds" />
          </mxGeometry>
        </mxCell>
        <mxCell id="HkPxLdzzHPnUdWTfFzcf-2" value="" style="shape=tableRow;horizontal=0;startSize=0;swimlaneHead=0;swimlaneBody=0;strokeColor=inherit;top=0;left=0;bottom=0;right=0;collapsible=0;dropTarget=0;fillColor=none;points=[[0,0.5],[1,0.5]];portConstraint=eastwest;fontSize=16;" parent="HkPxLdzzHPnUdWTfFzcf-1" vertex="1">
          <mxGeometry y="80" width="60" height="26" as="geometry" />
        </mxCell>
        <mxCell id="HkPxLdzzHPnUdWTfFzcf-14" value="3" style="shape=partialRectangle;html=1;whiteSpace=wrap;connectable=0;strokeColor=inherit;overflow=hidden;fillColor=none;top=0;left=0;bottom=0;right=0;pointerEvents=1;fontSize=16;" parent="HkPxLdzzHPnUdWTfFzcf-2" vertex="1">
          <mxGeometry width="30" height="26" as="geometry">
            <mxRectangle width="30" height="26" as="alternateBounds" />
          </mxGeometry>
        </mxCell>
        <mxCell id="HkPxLdzzHPnUdWTfFzcf-3" value="2" style="shape=partialRectangle;html=1;whiteSpace=wrap;connectable=0;strokeColor=inherit;overflow=hidden;fillColor=none;top=0;left=0;bottom=0;right=0;pointerEvents=1;fontSize=16;" parent="HkPxLdzzHPnUdWTfFzcf-2" vertex="1">
          <mxGeometry x="30" width="30" height="26" as="geometry">
            <mxRectangle width="30" height="26" as="alternateBounds" />
          </mxGeometry>
        </mxCell>
        <mxCell id="HkPxLdzzHPnUdWTfFzcf-6" value="" style="shape=tableRow;horizontal=0;startSize=0;swimlaneHead=0;swimlaneBody=0;strokeColor=inherit;top=0;left=0;bottom=0;right=0;collapsible=0;dropTarget=0;fillColor=none;points=[[0,0.5],[1,0.5]];portConstraint=eastwest;fontSize=16;" parent="HkPxLdzzHPnUdWTfFzcf-1" vertex="1">
          <mxGeometry y="106" width="60" height="28" as="geometry" />
        </mxCell>
        <mxCell id="HkPxLdzzHPnUdWTfFzcf-15" value="4" style="shape=partialRectangle;html=1;whiteSpace=wrap;connectable=0;strokeColor=inherit;overflow=hidden;fillColor=none;top=0;left=0;bottom=0;right=0;pointerEvents=1;fontSize=16;" parent="HkPxLdzzHPnUdWTfFzcf-6" vertex="1">
          <mxGeometry width="30" height="28" as="geometry">
            <mxRectangle width="30" height="28" as="alternateBounds" />
          </mxGeometry>
        </mxCell>
        <mxCell id="HkPxLdzzHPnUdWTfFzcf-7" value="5" style="shape=partialRectangle;html=1;whiteSpace=wrap;connectable=0;strokeColor=inherit;overflow=hidden;fillColor=none;top=0;left=0;bottom=0;right=0;pointerEvents=1;fontSize=16;" parent="HkPxLdzzHPnUdWTfFzcf-6" vertex="1">
          <mxGeometry x="30" width="30" height="28" as="geometry">
            <mxRectangle width="30" height="28" as="alternateBounds" />
          </mxGeometry>
        </mxCell>
        <mxCell id="HkPxLdzzHPnUdWTfFzcf-10" value="" style="shape=tableRow;horizontal=0;startSize=0;swimlaneHead=0;swimlaneBody=0;strokeColor=inherit;top=0;left=0;bottom=0;right=0;collapsible=0;dropTarget=0;fillColor=none;points=[[0,0.5],[1,0.5]];portConstraint=eastwest;fontSize=16;" parent="HkPxLdzzHPnUdWTfFzcf-1" vertex="1">
          <mxGeometry y="134" width="60" height="26" as="geometry" />
        </mxCell>
        <mxCell id="HkPxLdzzHPnUdWTfFzcf-16" value="5" style="shape=partialRectangle;html=1;whiteSpace=wrap;connectable=0;strokeColor=inherit;overflow=hidden;fillColor=none;top=0;left=0;bottom=0;right=0;pointerEvents=1;fontSize=16;" parent="HkPxLdzzHPnUdWTfFzcf-10" vertex="1">
          <mxGeometry width="30" height="26" as="geometry">
            <mxRectangle width="30" height="26" as="alternateBounds" />
          </mxGeometry>
        </mxCell>
        <mxCell id="HkPxLdzzHPnUdWTfFzcf-11" value="4" style="shape=partialRectangle;html=1;whiteSpace=wrap;connectable=0;strokeColor=inherit;overflow=hidden;fillColor=none;top=0;left=0;bottom=0;right=0;pointerEvents=1;fontSize=16;" parent="HkPxLdzzHPnUdWTfFzcf-10" vertex="1">
          <mxGeometry x="30" width="30" height="26" as="geometry">
            <mxRectangle width="30" height="26" as="alternateBounds" />
          </mxGeometry>
        </mxCell>
        <mxCell id="HkPxLdzzHPnUdWTfFzcf-26" value="" style="shape=table;startSize=0;container=1;collapsible=0;childLayout=tableLayout;fontSize=16;" parent="1" vertex="1">
          <mxGeometry x="40" y="460" width="60" height="134" as="geometry" />
        </mxCell>
        <mxCell id="HkPxLdzzHPnUdWTfFzcf-27" style="shape=tableRow;horizontal=0;startSize=0;swimlaneHead=0;swimlaneBody=0;strokeColor=inherit;top=0;left=0;bottom=0;right=0;collapsible=0;dropTarget=0;fillColor=none;points=[[0,0.5],[1,0.5]];portConstraint=eastwest;fontSize=16;" parent="HkPxLdzzHPnUdWTfFzcf-26" vertex="1">
          <mxGeometry width="60" height="26" as="geometry" />
        </mxCell>
        <mxCell id="HkPxLdzzHPnUdWTfFzcf-28" value="4" style="shape=partialRectangle;html=1;whiteSpace=wrap;connectable=0;strokeColor=inherit;overflow=hidden;fillColor=none;top=0;left=0;bottom=0;right=0;pointerEvents=1;fontSize=16;" parent="HkPxLdzzHPnUdWTfFzcf-27" vertex="1">
          <mxGeometry width="30" height="26" as="geometry">
            <mxRectangle width="30" height="26" as="alternateBounds" />
          </mxGeometry>
        </mxCell>
        <mxCell id="HkPxLdzzHPnUdWTfFzcf-29" value="6" style="shape=partialRectangle;html=1;whiteSpace=wrap;connectable=0;strokeColor=inherit;overflow=hidden;fillColor=none;top=0;left=0;bottom=0;right=0;pointerEvents=1;fontSize=16;" parent="HkPxLdzzHPnUdWTfFzcf-27" vertex="1">
          <mxGeometry x="30" width="30" height="26" as="geometry">
            <mxRectangle width="30" height="26" as="alternateBounds" />
          </mxGeometry>
        </mxCell>
        <mxCell id="HkPxLdzzHPnUdWTfFzcf-30" style="shape=tableRow;horizontal=0;startSize=0;swimlaneHead=0;swimlaneBody=0;strokeColor=inherit;top=0;left=0;bottom=0;right=0;collapsible=0;dropTarget=0;fillColor=none;points=[[0,0.5],[1,0.5]];portConstraint=eastwest;fontSize=16;" parent="HkPxLdzzHPnUdWTfFzcf-26" vertex="1">
          <mxGeometry y="26" width="60" height="28" as="geometry" />
        </mxCell>
        <mxCell id="HkPxLdzzHPnUdWTfFzcf-31" value="5" style="shape=partialRectangle;html=1;whiteSpace=wrap;connectable=0;strokeColor=inherit;overflow=hidden;fillColor=none;top=0;left=0;bottom=0;right=0;pointerEvents=1;fontSize=16;" parent="HkPxLdzzHPnUdWTfFzcf-30" vertex="1">
          <mxGeometry width="30" height="28" as="geometry">
            <mxRectangle width="30" height="28" as="alternateBounds" />
          </mxGeometry>
        </mxCell>
        <mxCell id="HkPxLdzzHPnUdWTfFzcf-32" value="6" style="shape=partialRectangle;html=1;whiteSpace=wrap;connectable=0;strokeColor=inherit;overflow=hidden;fillColor=none;top=0;left=0;bottom=0;right=0;pointerEvents=1;fontSize=16;" parent="HkPxLdzzHPnUdWTfFzcf-30" vertex="1">
          <mxGeometry x="30" width="30" height="28" as="geometry">
            <mxRectangle width="30" height="28" as="alternateBounds" />
          </mxGeometry>
        </mxCell>
        <mxCell id="HkPxLdzzHPnUdWTfFzcf-33" style="shape=tableRow;horizontal=0;startSize=0;swimlaneHead=0;swimlaneBody=0;strokeColor=inherit;top=0;left=0;bottom=0;right=0;collapsible=0;dropTarget=0;fillColor=none;points=[[0,0.5],[1,0.5]];portConstraint=eastwest;fontSize=16;" parent="HkPxLdzzHPnUdWTfFzcf-26" vertex="1">
          <mxGeometry y="54" width="60" height="26" as="geometry" />
        </mxCell>
        <mxCell id="HkPxLdzzHPnUdWTfFzcf-34" value="6" style="shape=partialRectangle;html=1;whiteSpace=wrap;connectable=0;strokeColor=inherit;overflow=hidden;fillColor=none;top=0;left=0;bottom=0;right=0;pointerEvents=1;fontSize=16;" parent="HkPxLdzzHPnUdWTfFzcf-33" vertex="1">
          <mxGeometry width="30" height="26" as="geometry">
            <mxRectangle width="30" height="26" as="alternateBounds" />
          </mxGeometry>
        </mxCell>
        <mxCell id="HkPxLdzzHPnUdWTfFzcf-35" value="4" style="shape=partialRectangle;html=1;whiteSpace=wrap;connectable=0;strokeColor=inherit;overflow=hidden;fillColor=none;top=0;left=0;bottom=0;right=0;pointerEvents=1;fontSize=16;" parent="HkPxLdzzHPnUdWTfFzcf-33" vertex="1">
          <mxGeometry x="30" width="30" height="26" as="geometry">
            <mxRectangle width="30" height="26" as="alternateBounds" />
          </mxGeometry>
        </mxCell>
        <mxCell id="HkPxLdzzHPnUdWTfFzcf-36" value="" style="shape=tableRow;horizontal=0;startSize=0;swimlaneHead=0;swimlaneBody=0;strokeColor=inherit;top=0;left=0;bottom=0;right=0;collapsible=0;dropTarget=0;fillColor=none;points=[[0,0.5],[1,0.5]];portConstraint=eastwest;fontSize=16;" parent="HkPxLdzzHPnUdWTfFzcf-26" vertex="1">
          <mxGeometry y="80" width="60" height="26" as="geometry" />
        </mxCell>
        <mxCell id="HkPxLdzzHPnUdWTfFzcf-37" value="6" style="shape=partialRectangle;html=1;whiteSpace=wrap;connectable=0;strokeColor=inherit;overflow=hidden;fillColor=none;top=0;left=0;bottom=0;right=0;pointerEvents=1;fontSize=16;" parent="HkPxLdzzHPnUdWTfFzcf-36" vertex="1">
          <mxGeometry width="30" height="26" as="geometry">
            <mxRectangle width="30" height="26" as="alternateBounds" />
          </mxGeometry>
        </mxCell>
        <mxCell id="HkPxLdzzHPnUdWTfFzcf-38" value="5" style="shape=partialRectangle;html=1;whiteSpace=wrap;connectable=0;strokeColor=inherit;overflow=hidden;fillColor=none;top=0;left=0;bottom=0;right=0;pointerEvents=1;fontSize=16;" parent="HkPxLdzzHPnUdWTfFzcf-36" vertex="1">
          <mxGeometry x="30" width="30" height="26" as="geometry">
            <mxRectangle width="30" height="26" as="alternateBounds" />
          </mxGeometry>
        </mxCell>
        <mxCell id="HkPxLdzzHPnUdWTfFzcf-39" value="" style="shape=tableRow;horizontal=0;startSize=0;swimlaneHead=0;swimlaneBody=0;strokeColor=inherit;top=0;left=0;bottom=0;right=0;collapsible=0;dropTarget=0;fillColor=none;points=[[0,0.5],[1,0.5]];portConstraint=eastwest;fontSize=16;" parent="HkPxLdzzHPnUdWTfFzcf-26" vertex="1">
          <mxGeometry y="106" width="60" height="28" as="geometry" />
        </mxCell>
        <mxCell id="HkPxLdzzHPnUdWTfFzcf-40" value="7" style="shape=partialRectangle;html=1;whiteSpace=wrap;connectable=0;strokeColor=inherit;overflow=hidden;fillColor=none;top=0;left=0;bottom=0;right=0;pointerEvents=1;fontSize=16;" parent="HkPxLdzzHPnUdWTfFzcf-39" vertex="1">
          <mxGeometry width="30" height="28" as="geometry">
            <mxRectangle width="30" height="28" as="alternateBounds" />
          </mxGeometry>
        </mxCell>
        <mxCell id="HkPxLdzzHPnUdWTfFzcf-41" value="7" style="shape=partialRectangle;html=1;whiteSpace=wrap;connectable=0;strokeColor=inherit;overflow=hidden;fillColor=none;top=0;left=0;bottom=0;right=0;pointerEvents=1;fontSize=16;" parent="HkPxLdzzHPnUdWTfFzcf-39" vertex="1">
          <mxGeometry x="30" width="30" height="28" as="geometry">
            <mxRectangle width="30" height="28" as="alternateBounds" />
          </mxGeometry>
        </mxCell>
        <mxCell id="HkPxLdzzHPnUdWTfFzcf-45" value="" style="shape=table;startSize=0;container=1;collapsible=0;childLayout=tableLayout;fontSize=16;" parent="1" vertex="1">
          <mxGeometry x="188" y="280" width="60" height="134" as="geometry" />
        </mxCell>
        <mxCell id="HkPxLdzzHPnUdWTfFzcf-46" style="shape=tableRow;horizontal=0;startSize=0;swimlaneHead=0;swimlaneBody=0;strokeColor=inherit;top=0;left=0;bottom=0;right=0;collapsible=0;dropTarget=0;fillColor=none;points=[[0,0.5],[1,0.5]];portConstraint=eastwest;fontSize=16;" parent="HkPxLdzzHPnUdWTfFzcf-45" vertex="1">
          <mxGeometry width="60" height="26" as="geometry" />
        </mxCell>
        <mxCell id="HkPxLdzzHPnUdWTfFzcf-47" value="2" style="shape=partialRectangle;html=1;whiteSpace=wrap;connectable=0;strokeColor=inherit;overflow=hidden;fillColor=none;top=0;left=0;bottom=0;right=0;pointerEvents=1;fontSize=16;" parent="HkPxLdzzHPnUdWTfFzcf-46" vertex="1">
          <mxGeometry width="30" height="26" as="geometry">
            <mxRectangle width="30" height="26" as="alternateBounds" />
          </mxGeometry>
        </mxCell>
        <mxCell id="HkPxLdzzHPnUdWTfFzcf-48" value="1" style="shape=partialRectangle;html=1;whiteSpace=wrap;connectable=0;strokeColor=inherit;overflow=hidden;fillColor=none;top=0;left=0;bottom=0;right=0;pointerEvents=1;fontSize=16;" parent="HkPxLdzzHPnUdWTfFzcf-46" vertex="1">
          <mxGeometry x="30" width="30" height="26" as="geometry">
            <mxRectangle width="30" height="26" as="alternateBounds" />
          </mxGeometry>
        </mxCell>
        <mxCell id="HkPxLdzzHPnUdWTfFzcf-49" style="shape=tableRow;horizontal=0;startSize=0;swimlaneHead=0;swimlaneBody=0;strokeColor=inherit;top=0;left=0;bottom=0;right=0;collapsible=0;dropTarget=0;fillColor=none;points=[[0,0.5],[1,0.5]];portConstraint=eastwest;fontSize=16;" parent="HkPxLdzzHPnUdWTfFzcf-45" vertex="1">
          <mxGeometry y="26" width="60" height="28" as="geometry" />
        </mxCell>
        <mxCell id="HkPxLdzzHPnUdWTfFzcf-50" value="2" style="shape=partialRectangle;html=1;whiteSpace=wrap;connectable=0;strokeColor=inherit;overflow=hidden;fillColor=none;top=0;left=0;bottom=0;right=0;pointerEvents=1;fontSize=16;" parent="HkPxLdzzHPnUdWTfFzcf-49" vertex="1">
          <mxGeometry width="30" height="28" as="geometry">
            <mxRectangle width="30" height="28" as="alternateBounds" />
          </mxGeometry>
        </mxCell>
        <mxCell id="HkPxLdzzHPnUdWTfFzcf-51" value="3" style="shape=partialRectangle;html=1;whiteSpace=wrap;connectable=0;strokeColor=inherit;overflow=hidden;fillColor=none;top=0;left=0;bottom=0;right=0;pointerEvents=1;fontSize=16;" parent="HkPxLdzzHPnUdWTfFzcf-49" vertex="1">
          <mxGeometry x="30" width="30" height="28" as="geometry">
            <mxRectangle width="30" height="28" as="alternateBounds" />
          </mxGeometry>
        </mxCell>
        <mxCell id="HkPxLdzzHPnUdWTfFzcf-52" style="shape=tableRow;horizontal=0;startSize=0;swimlaneHead=0;swimlaneBody=0;strokeColor=inherit;top=0;left=0;bottom=0;right=0;collapsible=0;dropTarget=0;fillColor=none;points=[[0,0.5],[1,0.5]];portConstraint=eastwest;fontSize=16;" parent="HkPxLdzzHPnUdWTfFzcf-45" vertex="1">
          <mxGeometry y="54" width="60" height="26" as="geometry" />
        </mxCell>
        <mxCell id="HkPxLdzzHPnUdWTfFzcf-53" value="6" style="shape=partialRectangle;html=1;whiteSpace=wrap;connectable=0;strokeColor=inherit;overflow=hidden;fillColor=none;top=0;left=0;bottom=0;right=0;pointerEvents=1;fontSize=16;" parent="HkPxLdzzHPnUdWTfFzcf-52" vertex="1">
          <mxGeometry width="30" height="26" as="geometry">
            <mxRectangle width="30" height="26" as="alternateBounds" />
          </mxGeometry>
        </mxCell>
        <mxCell id="HkPxLdzzHPnUdWTfFzcf-54" value="4" style="shape=partialRectangle;html=1;whiteSpace=wrap;connectable=0;strokeColor=inherit;overflow=hidden;fillColor=none;top=0;left=0;bottom=0;right=0;pointerEvents=1;fontSize=16;" parent="HkPxLdzzHPnUdWTfFzcf-52" vertex="1">
          <mxGeometry x="30" width="30" height="26" as="geometry">
            <mxRectangle width="30" height="26" as="alternateBounds" />
          </mxGeometry>
        </mxCell>
        <mxCell id="HkPxLdzzHPnUdWTfFzcf-55" value="" style="shape=tableRow;horizontal=0;startSize=0;swimlaneHead=0;swimlaneBody=0;strokeColor=inherit;top=0;left=0;bottom=0;right=0;collapsible=0;dropTarget=0;fillColor=none;points=[[0,0.5],[1,0.5]];portConstraint=eastwest;fontSize=16;" parent="HkPxLdzzHPnUdWTfFzcf-45" vertex="1">
          <mxGeometry y="80" width="60" height="26" as="geometry" />
        </mxCell>
        <mxCell id="HkPxLdzzHPnUdWTfFzcf-56" value="6" style="shape=partialRectangle;html=1;whiteSpace=wrap;connectable=0;strokeColor=inherit;overflow=hidden;fillColor=none;top=0;left=0;bottom=0;right=0;pointerEvents=1;fontSize=16;" parent="HkPxLdzzHPnUdWTfFzcf-55" vertex="1">
          <mxGeometry width="30" height="26" as="geometry">
            <mxRectangle width="30" height="26" as="alternateBounds" />
          </mxGeometry>
        </mxCell>
        <mxCell id="HkPxLdzzHPnUdWTfFzcf-57" value="5" style="shape=partialRectangle;html=1;whiteSpace=wrap;connectable=0;strokeColor=inherit;overflow=hidden;fillColor=none;top=0;left=0;bottom=0;right=0;pointerEvents=1;fontSize=16;" parent="HkPxLdzzHPnUdWTfFzcf-55" vertex="1">
          <mxGeometry x="30" width="30" height="26" as="geometry">
            <mxRectangle width="30" height="26" as="alternateBounds" />
          </mxGeometry>
        </mxCell>
        <mxCell id="HkPxLdzzHPnUdWTfFzcf-58" value="" style="shape=tableRow;horizontal=0;startSize=0;swimlaneHead=0;swimlaneBody=0;strokeColor=inherit;top=0;left=0;bottom=0;right=0;collapsible=0;dropTarget=0;fillColor=none;points=[[0,0.5],[1,0.5]];portConstraint=eastwest;fontSize=16;" parent="HkPxLdzzHPnUdWTfFzcf-45" vertex="1">
          <mxGeometry y="106" width="60" height="28" as="geometry" />
        </mxCell>
        <mxCell id="HkPxLdzzHPnUdWTfFzcf-59" value="7" style="shape=partialRectangle;html=1;whiteSpace=wrap;connectable=0;strokeColor=inherit;overflow=hidden;fillColor=none;top=0;left=0;bottom=0;right=0;pointerEvents=1;fontSize=16;" parent="HkPxLdzzHPnUdWTfFzcf-58" vertex="1">
          <mxGeometry width="30" height="28" as="geometry">
            <mxRectangle width="30" height="28" as="alternateBounds" />
          </mxGeometry>
        </mxCell>
        <mxCell id="HkPxLdzzHPnUdWTfFzcf-60" value="7" style="shape=partialRectangle;html=1;whiteSpace=wrap;connectable=0;strokeColor=inherit;overflow=hidden;fillColor=none;top=0;left=0;bottom=0;right=0;pointerEvents=1;fontSize=16;" parent="HkPxLdzzHPnUdWTfFzcf-58" vertex="1">
          <mxGeometry x="30" width="30" height="28" as="geometry">
            <mxRectangle width="30" height="28" as="alternateBounds" />
          </mxGeometry>
        </mxCell>
        <mxCell id="HkPxLdzzHPnUdWTfFzcf-61" value="" style="shape=table;startSize=0;container=1;collapsible=0;childLayout=tableLayout;fontSize=16;" parent="1" vertex="1">
          <mxGeometry x="186" y="460" width="60" height="160" as="geometry" />
        </mxCell>
        <mxCell id="HkPxLdzzHPnUdWTfFzcf-62" style="shape=tableRow;horizontal=0;startSize=0;swimlaneHead=0;swimlaneBody=0;strokeColor=inherit;top=0;left=0;bottom=0;right=0;collapsible=0;dropTarget=0;fillColor=none;points=[[0,0.5],[1,0.5]];portConstraint=eastwest;fontSize=16;" parent="HkPxLdzzHPnUdWTfFzcf-61" vertex="1">
          <mxGeometry width="60" height="26" as="geometry" />
        </mxCell>
        <mxCell id="HkPxLdzzHPnUdWTfFzcf-63" value="1" style="shape=partialRectangle;html=1;whiteSpace=wrap;connectable=0;strokeColor=inherit;overflow=hidden;fillColor=none;top=0;left=0;bottom=0;right=0;pointerEvents=1;fontSize=16;" parent="HkPxLdzzHPnUdWTfFzcf-62" vertex="1">
          <mxGeometry width="30" height="26" as="geometry">
            <mxRectangle width="30" height="26" as="alternateBounds" />
          </mxGeometry>
        </mxCell>
        <mxCell id="HkPxLdzzHPnUdWTfFzcf-64" value="2" style="shape=partialRectangle;html=1;whiteSpace=wrap;connectable=0;strokeColor=inherit;overflow=hidden;fillColor=none;top=0;left=0;bottom=0;right=0;pointerEvents=1;fontSize=16;" parent="HkPxLdzzHPnUdWTfFzcf-62" vertex="1">
          <mxGeometry x="30" width="30" height="26" as="geometry">
            <mxRectangle width="30" height="26" as="alternateBounds" />
          </mxGeometry>
        </mxCell>
        <mxCell id="HkPxLdzzHPnUdWTfFzcf-65" style="shape=tableRow;horizontal=0;startSize=0;swimlaneHead=0;swimlaneBody=0;strokeColor=inherit;top=0;left=0;bottom=0;right=0;collapsible=0;dropTarget=0;fillColor=none;points=[[0,0.5],[1,0.5]];portConstraint=eastwest;fontSize=16;" parent="HkPxLdzzHPnUdWTfFzcf-61" vertex="1">
          <mxGeometry y="26" width="60" height="28" as="geometry" />
        </mxCell>
        <mxCell id="HkPxLdzzHPnUdWTfFzcf-66" value="3" style="shape=partialRectangle;html=1;whiteSpace=wrap;connectable=0;strokeColor=inherit;overflow=hidden;fillColor=none;top=0;left=0;bottom=0;right=0;pointerEvents=1;fontSize=16;" parent="HkPxLdzzHPnUdWTfFzcf-65" vertex="1">
          <mxGeometry width="30" height="28" as="geometry">
            <mxRectangle width="30" height="28" as="alternateBounds" />
          </mxGeometry>
        </mxCell>
        <mxCell id="HkPxLdzzHPnUdWTfFzcf-67" value="2" style="shape=partialRectangle;html=1;whiteSpace=wrap;connectable=0;strokeColor=inherit;overflow=hidden;fillColor=none;top=0;left=0;bottom=0;right=0;pointerEvents=1;fontSize=16;" parent="HkPxLdzzHPnUdWTfFzcf-65" vertex="1">
          <mxGeometry x="30" width="30" height="28" as="geometry">
            <mxRectangle width="30" height="28" as="alternateBounds" />
          </mxGeometry>
        </mxCell>
        <mxCell id="HkPxLdzzHPnUdWTfFzcf-68" style="shape=tableRow;horizontal=0;startSize=0;swimlaneHead=0;swimlaneBody=0;strokeColor=inherit;top=0;left=0;bottom=0;right=0;collapsible=0;dropTarget=0;fillColor=none;points=[[0,0.5],[1,0.5]];portConstraint=eastwest;fontSize=16;" parent="HkPxLdzzHPnUdWTfFzcf-61" vertex="1">
          <mxGeometry y="54" width="60" height="26" as="geometry" />
        </mxCell>
        <mxCell id="HkPxLdzzHPnUdWTfFzcf-69" value="4" style="shape=partialRectangle;html=1;whiteSpace=wrap;connectable=0;strokeColor=inherit;overflow=hidden;fillColor=none;top=0;left=0;bottom=0;right=0;pointerEvents=1;fontSize=16;" parent="HkPxLdzzHPnUdWTfFzcf-68" vertex="1">
          <mxGeometry width="30" height="26" as="geometry">
            <mxRectangle width="30" height="26" as="alternateBounds" />
          </mxGeometry>
        </mxCell>
        <mxCell id="HkPxLdzzHPnUdWTfFzcf-70" value="5" style="shape=partialRectangle;html=1;whiteSpace=wrap;connectable=0;strokeColor=inherit;overflow=hidden;fillColor=none;top=0;left=0;bottom=0;right=0;pointerEvents=1;fontSize=16;" parent="HkPxLdzzHPnUdWTfFzcf-68" vertex="1">
          <mxGeometry x="30" width="30" height="26" as="geometry">
            <mxRectangle width="30" height="26" as="alternateBounds" />
          </mxGeometry>
        </mxCell>
        <mxCell id="HkPxLdzzHPnUdWTfFzcf-71" value="" style="shape=tableRow;horizontal=0;startSize=0;swimlaneHead=0;swimlaneBody=0;strokeColor=inherit;top=0;left=0;bottom=0;right=0;collapsible=0;dropTarget=0;fillColor=none;points=[[0,0.5],[1,0.5]];portConstraint=eastwest;fontSize=16;" parent="HkPxLdzzHPnUdWTfFzcf-61" vertex="1">
          <mxGeometry y="80" width="60" height="26" as="geometry" />
        </mxCell>
        <mxCell id="HkPxLdzzHPnUdWTfFzcf-72" value="4" style="shape=partialRectangle;html=1;whiteSpace=wrap;connectable=0;strokeColor=inherit;overflow=hidden;fillColor=none;top=0;left=0;bottom=0;right=0;pointerEvents=1;fontSize=16;" parent="HkPxLdzzHPnUdWTfFzcf-71" vertex="1">
          <mxGeometry width="30" height="26" as="geometry">
            <mxRectangle width="30" height="26" as="alternateBounds" />
          </mxGeometry>
        </mxCell>
        <mxCell id="HkPxLdzzHPnUdWTfFzcf-73" value="6" style="shape=partialRectangle;html=1;whiteSpace=wrap;connectable=0;strokeColor=inherit;overflow=hidden;fillColor=none;top=0;left=0;bottom=0;right=0;pointerEvents=1;fontSize=16;" parent="HkPxLdzzHPnUdWTfFzcf-71" vertex="1">
          <mxGeometry x="30" width="30" height="26" as="geometry">
            <mxRectangle width="30" height="26" as="alternateBounds" />
          </mxGeometry>
        </mxCell>
        <mxCell id="HkPxLdzzHPnUdWTfFzcf-74" value="" style="shape=tableRow;horizontal=0;startSize=0;swimlaneHead=0;swimlaneBody=0;strokeColor=inherit;top=0;left=0;bottom=0;right=0;collapsible=0;dropTarget=0;fillColor=none;points=[[0,0.5],[1,0.5]];portConstraint=eastwest;fontSize=16;" parent="HkPxLdzzHPnUdWTfFzcf-61" vertex="1">
          <mxGeometry y="106" width="60" height="28" as="geometry" />
        </mxCell>
        <mxCell id="HkPxLdzzHPnUdWTfFzcf-75" value="5" style="shape=partialRectangle;html=1;whiteSpace=wrap;connectable=0;strokeColor=inherit;overflow=hidden;fillColor=none;top=0;left=0;bottom=0;right=0;pointerEvents=1;fontSize=16;" parent="HkPxLdzzHPnUdWTfFzcf-74" vertex="1">
          <mxGeometry width="30" height="28" as="geometry">
            <mxRectangle width="30" height="28" as="alternateBounds" />
          </mxGeometry>
        </mxCell>
        <mxCell id="HkPxLdzzHPnUdWTfFzcf-76" value="4" style="shape=partialRectangle;html=1;whiteSpace=wrap;connectable=0;strokeColor=inherit;overflow=hidden;fillColor=none;top=0;left=0;bottom=0;right=0;pointerEvents=1;fontSize=16;" parent="HkPxLdzzHPnUdWTfFzcf-74" vertex="1">
          <mxGeometry x="30" width="30" height="28" as="geometry">
            <mxRectangle width="30" height="28" as="alternateBounds" />
          </mxGeometry>
        </mxCell>
        <mxCell id="HkPxLdzzHPnUdWTfFzcf-77" value="" style="shape=tableRow;horizontal=0;startSize=0;swimlaneHead=0;swimlaneBody=0;strokeColor=inherit;top=0;left=0;bottom=0;right=0;collapsible=0;dropTarget=0;fillColor=none;points=[[0,0.5],[1,0.5]];portConstraint=eastwest;fontSize=16;" parent="HkPxLdzzHPnUdWTfFzcf-61" vertex="1">
          <mxGeometry y="134" width="60" height="26" as="geometry" />
        </mxCell>
        <mxCell id="HkPxLdzzHPnUdWTfFzcf-78" value="5" style="shape=partialRectangle;html=1;whiteSpace=wrap;connectable=0;strokeColor=inherit;overflow=hidden;fillColor=none;top=0;left=0;bottom=0;right=0;pointerEvents=1;fontSize=16;" parent="HkPxLdzzHPnUdWTfFzcf-77" vertex="1">
          <mxGeometry width="30" height="26" as="geometry">
            <mxRectangle width="30" height="26" as="alternateBounds" />
          </mxGeometry>
        </mxCell>
        <mxCell id="HkPxLdzzHPnUdWTfFzcf-79" value="6" style="shape=partialRectangle;html=1;whiteSpace=wrap;connectable=0;strokeColor=inherit;overflow=hidden;fillColor=none;top=0;left=0;bottom=0;right=0;pointerEvents=1;fontSize=16;" parent="HkPxLdzzHPnUdWTfFzcf-77" vertex="1">
          <mxGeometry x="30" width="30" height="26" as="geometry">
            <mxRectangle width="30" height="26" as="alternateBounds" />
          </mxGeometry>
        </mxCell>
        <mxCell id="HkPxLdzzHPnUdWTfFzcf-80" style="edgeStyle=orthogonalEdgeStyle;rounded=0;orthogonalLoop=1;jettySize=auto;html=1;exitX=1;exitY=0.5;exitDx=0;exitDy=0;fillColor=#1ba1e2;strokeColor=#006EAF;strokeWidth=2;" parent="1" source="HkPxLdzzHPnUdWTfFzcf-23" target="HkPxLdzzHPnUdWTfFzcf-62" edge="1">
          <mxGeometry relative="1" as="geometry">
            <mxPoint x="119" y="293" as="sourcePoint" />
            <Array as="points">
              <mxPoint x="139" y="293" />
              <mxPoint x="139" y="473" />
            </Array>
          </mxGeometry>
        </mxCell>
        <mxCell id="HkPxLdzzHPnUdWTfFzcf-81" style="edgeStyle=orthogonalEdgeStyle;rounded=0;orthogonalLoop=1;jettySize=auto;html=1;exitX=1;exitY=0.5;exitDx=0;exitDy=0;fillColor=#1ba1e2;strokeColor=#006EAF;strokeWidth=2;entryX=0;entryY=0.5;entryDx=0;entryDy=0;" parent="1" source="HkPxLdzzHPnUdWTfFzcf-2" target="HkPxLdzzHPnUdWTfFzcf-65" edge="1">
          <mxGeometry relative="1" as="geometry">
            <mxPoint x="119" y="373" as="sourcePoint" />
            <mxPoint x="168" y="483" as="targetPoint" />
            <Array as="points">
              <mxPoint x="129" y="373" />
              <mxPoint x="129" y="500" />
            </Array>
          </mxGeometry>
        </mxCell>
        <mxCell id="HkPxLdzzHPnUdWTfFzcf-82" style="edgeStyle=orthogonalEdgeStyle;rounded=0;orthogonalLoop=1;jettySize=auto;html=1;exitX=1;exitY=0.5;exitDx=0;exitDy=0;fillColor=#1ba1e2;strokeColor=#006EAF;strokeWidth=2;entryX=0;entryY=0.5;entryDx=0;entryDy=0;" parent="1" source="HkPxLdzzHPnUdWTfFzcf-6" target="HkPxLdzzHPnUdWTfFzcf-68" edge="1">
          <mxGeometry relative="1" as="geometry">
            <mxPoint x="119" y="399.9999999999999" as="sourcePoint" />
            <mxPoint x="168" y="510" as="targetPoint" />
            <Array as="points">
              <mxPoint x="120" y="400" />
              <mxPoint x="120" y="527" />
            </Array>
          </mxGeometry>
        </mxCell>
        <mxCell id="HkPxLdzzHPnUdWTfFzcf-83" style="edgeStyle=orthogonalEdgeStyle;rounded=0;orthogonalLoop=1;jettySize=auto;html=1;exitX=1;exitY=0.5;exitDx=0;exitDy=0;fillColor=#1ba1e2;strokeColor=#006EAF;strokeWidth=2;entryX=0;entryY=0.5;entryDx=0;entryDy=0;" parent="1" source="HkPxLdzzHPnUdWTfFzcf-10" target="HkPxLdzzHPnUdWTfFzcf-74" edge="1">
          <mxGeometry relative="1" as="geometry">
            <mxPoint x="110" y="410" as="sourcePoint" />
            <mxPoint x="168" y="537" as="targetPoint" />
            <Array as="points">
              <mxPoint x="110" y="427" />
              <mxPoint x="110" y="580" />
            </Array>
          </mxGeometry>
        </mxCell>
        <mxCell id="HkPxLdzzHPnUdWTfFzcf-84" style="edgeStyle=orthogonalEdgeStyle;rounded=0;orthogonalLoop=1;jettySize=auto;html=1;fillColor=#d80073;strokeColor=#A50040;strokeWidth=2;entryX=0;entryY=0.5;entryDx=0;entryDy=0;" parent="1" target="HkPxLdzzHPnUdWTfFzcf-52" edge="1">
          <mxGeometry relative="1" as="geometry">
            <mxPoint x="100" y="530" as="sourcePoint" />
            <mxPoint x="483" y="520" as="targetPoint" />
            <Array as="points">
              <mxPoint x="100" y="530" />
              <mxPoint x="150" y="530" />
              <mxPoint x="150" y="347" />
            </Array>
          </mxGeometry>
        </mxCell>
        <mxCell id="HkPxLdzzHPnUdWTfFzcf-85" style="edgeStyle=orthogonalEdgeStyle;rounded=0;orthogonalLoop=1;jettySize=auto;html=1;fillColor=#d80073;strokeColor=#A50040;strokeWidth=2;entryX=0;entryY=0.5;entryDx=0;entryDy=0;exitX=1;exitY=0.5;exitDx=0;exitDy=0;" parent="1" source="HkPxLdzzHPnUdWTfFzcf-36" target="HkPxLdzzHPnUdWTfFzcf-55" edge="1">
          <mxGeometry relative="1" as="geometry">
            <mxPoint x="110" y="540" as="sourcePoint" />
            <mxPoint x="198" y="357" as="targetPoint" />
            <Array as="points">
              <mxPoint x="160" y="553" />
              <mxPoint x="160" y="373" />
            </Array>
          </mxGeometry>
        </mxCell>
        <mxCell id="HkPxLdzzHPnUdWTfFzcf-86" style="edgeStyle=orthogonalEdgeStyle;rounded=0;orthogonalLoop=1;jettySize=auto;html=1;fillColor=#d80073;strokeColor=#A50040;strokeWidth=2;entryX=0;entryY=0.5;entryDx=0;entryDy=0;" parent="1" target="HkPxLdzzHPnUdWTfFzcf-58" edge="1">
          <mxGeometry relative="1" as="geometry">
            <mxPoint x="100" y="585" as="sourcePoint" />
            <mxPoint x="180" y="400" as="targetPoint" />
            <Array as="points">
              <mxPoint x="170" y="585" />
              <mxPoint x="170" y="400" />
            </Array>
          </mxGeometry>
        </mxCell>
        <mxCell id="HkPxLdzzHPnUdWTfFzcf-87" value="" style="shape=table;startSize=0;container=1;collapsible=0;childLayout=tableLayout;fontSize=16;" parent="1" vertex="1">
          <mxGeometry x="280" y="280" width="60" height="80" as="geometry" />
        </mxCell>
        <mxCell id="HkPxLdzzHPnUdWTfFzcf-88" style="shape=tableRow;horizontal=0;startSize=0;swimlaneHead=0;swimlaneBody=0;strokeColor=inherit;top=0;left=0;bottom=0;right=0;collapsible=0;dropTarget=0;fillColor=none;points=[[0,0.5],[1,0.5]];portConstraint=eastwest;fontSize=16;" parent="HkPxLdzzHPnUdWTfFzcf-87" vertex="1">
          <mxGeometry width="60" height="26" as="geometry" />
        </mxCell>
        <mxCell id="HkPxLdzzHPnUdWTfFzcf-89" value="2" style="shape=partialRectangle;html=1;whiteSpace=wrap;connectable=0;strokeColor=#005700;overflow=hidden;fillColor=#008a00;top=0;left=0;bottom=0;right=0;pointerEvents=1;fontSize=16;labelBorderColor=none;labelBackgroundColor=none;fontStyle=0;fontColor=#ffffff;" parent="HkPxLdzzHPnUdWTfFzcf-88" vertex="1">
          <mxGeometry width="30" height="26" as="geometry">
            <mxRectangle width="30" height="26" as="alternateBounds" />
          </mxGeometry>
        </mxCell>
        <mxCell id="HkPxLdzzHPnUdWTfFzcf-90" value="2" style="shape=partialRectangle;html=1;whiteSpace=wrap;connectable=0;strokeColor=#314354;overflow=hidden;fillColor=#647687;top=0;left=0;bottom=0;right=0;pointerEvents=1;fontSize=16;labelBorderColor=none;labelBackgroundColor=none;fontStyle=0;fontColor=#ffffff;" parent="HkPxLdzzHPnUdWTfFzcf-88" vertex="1">
          <mxGeometry x="30" width="30" height="26" as="geometry">
            <mxRectangle width="30" height="26" as="alternateBounds" />
          </mxGeometry>
        </mxCell>
        <mxCell id="HkPxLdzzHPnUdWTfFzcf-91" style="shape=tableRow;horizontal=0;startSize=0;swimlaneHead=0;swimlaneBody=0;strokeColor=inherit;top=0;left=0;bottom=0;right=0;collapsible=0;dropTarget=0;fillColor=none;points=[[0,0.5],[1,0.5]];portConstraint=eastwest;fontSize=16;" parent="HkPxLdzzHPnUdWTfFzcf-87" vertex="1">
          <mxGeometry y="26" width="60" height="28" as="geometry" />
        </mxCell>
        <mxCell id="HkPxLdzzHPnUdWTfFzcf-92" value="6" style="shape=partialRectangle;html=1;whiteSpace=wrap;connectable=0;strokeColor=#005700;overflow=hidden;fillColor=#008a00;top=0;left=0;bottom=0;right=0;pointerEvents=1;fontSize=16;fontColor=#ffffff;" parent="HkPxLdzzHPnUdWTfFzcf-91" vertex="1">
          <mxGeometry width="30" height="28" as="geometry">
            <mxRectangle width="30" height="28" as="alternateBounds" />
          </mxGeometry>
        </mxCell>
        <mxCell id="HkPxLdzzHPnUdWTfFzcf-93" value="6" style="shape=partialRectangle;html=1;whiteSpace=wrap;connectable=0;strokeColor=#314354;overflow=hidden;fillColor=#647687;top=0;left=0;bottom=0;right=0;pointerEvents=1;fontSize=16;fontColor=#ffffff;" parent="HkPxLdzzHPnUdWTfFzcf-91" vertex="1">
          <mxGeometry x="30" width="30" height="28" as="geometry">
            <mxRectangle width="30" height="28" as="alternateBounds" />
          </mxGeometry>
        </mxCell>
        <mxCell id="HkPxLdzzHPnUdWTfFzcf-94" style="shape=tableRow;horizontal=0;startSize=0;swimlaneHead=0;swimlaneBody=0;strokeColor=inherit;top=0;left=0;bottom=0;right=0;collapsible=0;dropTarget=0;fillColor=none;points=[[0,0.5],[1,0.5]];portConstraint=eastwest;fontSize=16;" parent="HkPxLdzzHPnUdWTfFzcf-87" vertex="1">
          <mxGeometry y="54" width="60" height="26" as="geometry" />
        </mxCell>
        <mxCell id="HkPxLdzzHPnUdWTfFzcf-95" value="7" style="shape=partialRectangle;html=1;whiteSpace=wrap;connectable=0;strokeColor=inherit;overflow=hidden;fillColor=none;top=0;left=0;bottom=0;right=0;pointerEvents=1;fontSize=16;" parent="HkPxLdzzHPnUdWTfFzcf-94" vertex="1">
          <mxGeometry width="30" height="26" as="geometry">
            <mxRectangle width="30" height="26" as="alternateBounds" />
          </mxGeometry>
        </mxCell>
        <mxCell id="HkPxLdzzHPnUdWTfFzcf-96" value="7" style="shape=partialRectangle;html=1;whiteSpace=wrap;connectable=0;strokeColor=inherit;overflow=hidden;fillColor=none;top=0;left=0;bottom=0;right=0;pointerEvents=1;fontSize=16;" parent="HkPxLdzzHPnUdWTfFzcf-94" vertex="1">
          <mxGeometry x="30" width="30" height="26" as="geometry">
            <mxRectangle width="30" height="26" as="alternateBounds" />
          </mxGeometry>
        </mxCell>
        <mxCell id="HkPxLdzzHPnUdWTfFzcf-103" value="" style="shape=table;startSize=0;container=1;collapsible=0;childLayout=tableLayout;fontSize=16;" parent="1" vertex="1">
          <mxGeometry x="280" y="460" width="60" height="106" as="geometry" />
        </mxCell>
        <mxCell id="HkPxLdzzHPnUdWTfFzcf-104" style="shape=tableRow;horizontal=0;startSize=0;swimlaneHead=0;swimlaneBody=0;strokeColor=inherit;top=0;left=0;bottom=0;right=0;collapsible=0;dropTarget=0;fillColor=none;points=[[0,0.5],[1,0.5]];portConstraint=eastwest;fontSize=16;" parent="HkPxLdzzHPnUdWTfFzcf-103" vertex="1">
          <mxGeometry width="60" height="26" as="geometry" />
        </mxCell>
        <mxCell id="HkPxLdzzHPnUdWTfFzcf-105" value="1" style="shape=partialRectangle;html=1;whiteSpace=wrap;connectable=0;strokeColor=inherit;overflow=hidden;fillColor=none;top=0;left=0;bottom=0;right=0;pointerEvents=1;fontSize=16;" parent="HkPxLdzzHPnUdWTfFzcf-104" vertex="1">
          <mxGeometry width="30" height="26" as="geometry">
            <mxRectangle width="30" height="26" as="alternateBounds" />
          </mxGeometry>
        </mxCell>
        <mxCell id="HkPxLdzzHPnUdWTfFzcf-106" value="1" style="shape=partialRectangle;html=1;whiteSpace=wrap;connectable=0;strokeColor=inherit;overflow=hidden;fillColor=none;top=0;left=0;bottom=0;right=0;pointerEvents=1;fontSize=16;" parent="HkPxLdzzHPnUdWTfFzcf-104" vertex="1">
          <mxGeometry x="30" width="30" height="26" as="geometry">
            <mxRectangle width="30" height="26" as="alternateBounds" />
          </mxGeometry>
        </mxCell>
        <mxCell id="HkPxLdzzHPnUdWTfFzcf-107" style="shape=tableRow;horizontal=0;startSize=0;swimlaneHead=0;swimlaneBody=0;strokeColor=inherit;top=0;left=0;bottom=0;right=0;collapsible=0;dropTarget=0;fillColor=none;points=[[0,0.5],[1,0.5]];portConstraint=eastwest;fontSize=16;" parent="HkPxLdzzHPnUdWTfFzcf-103" vertex="1">
          <mxGeometry y="26" width="60" height="28" as="geometry" />
        </mxCell>
        <mxCell id="HkPxLdzzHPnUdWTfFzcf-108" value="3" style="shape=partialRectangle;html=1;whiteSpace=wrap;connectable=0;strokeColor=#005700;overflow=hidden;fillColor=#008a00;top=0;left=0;bottom=0;right=0;pointerEvents=1;fontSize=16;fontColor=#ffffff;" parent="HkPxLdzzHPnUdWTfFzcf-107" vertex="1">
          <mxGeometry width="30" height="28" as="geometry">
            <mxRectangle width="30" height="28" as="alternateBounds" />
          </mxGeometry>
        </mxCell>
        <mxCell id="HkPxLdzzHPnUdWTfFzcf-109" value="3" style="shape=partialRectangle;html=1;whiteSpace=wrap;connectable=0;strokeColor=#314354;overflow=hidden;fillColor=#647687;top=0;left=0;bottom=0;right=0;pointerEvents=1;fontSize=16;fontColor=#ffffff;" parent="HkPxLdzzHPnUdWTfFzcf-107" vertex="1">
          <mxGeometry x="30" width="30" height="28" as="geometry">
            <mxRectangle width="30" height="28" as="alternateBounds" />
          </mxGeometry>
        </mxCell>
        <mxCell id="HkPxLdzzHPnUdWTfFzcf-110" style="shape=tableRow;horizontal=0;startSize=0;swimlaneHead=0;swimlaneBody=0;strokeColor=inherit;top=0;left=0;bottom=0;right=0;collapsible=0;dropTarget=0;fillColor=none;points=[[0,0.5],[1,0.5]];portConstraint=eastwest;fontSize=16;" parent="HkPxLdzzHPnUdWTfFzcf-103" vertex="1">
          <mxGeometry y="54" width="60" height="26" as="geometry" />
        </mxCell>
        <mxCell id="HkPxLdzzHPnUdWTfFzcf-111" value="4" style="shape=partialRectangle;html=1;whiteSpace=wrap;connectable=0;strokeColor=inherit;overflow=hidden;fillColor=none;top=0;left=0;bottom=0;right=0;pointerEvents=1;fontSize=16;" parent="HkPxLdzzHPnUdWTfFzcf-110" vertex="1">
          <mxGeometry width="30" height="26" as="geometry">
            <mxRectangle width="30" height="26" as="alternateBounds" />
          </mxGeometry>
        </mxCell>
        <mxCell id="HkPxLdzzHPnUdWTfFzcf-112" value="4" style="shape=partialRectangle;html=1;whiteSpace=wrap;connectable=0;strokeColor=inherit;overflow=hidden;fillColor=none;top=0;left=0;bottom=0;right=0;pointerEvents=1;fontSize=16;" parent="HkPxLdzzHPnUdWTfFzcf-110" vertex="1">
          <mxGeometry x="30" width="30" height="26" as="geometry">
            <mxRectangle width="30" height="26" as="alternateBounds" />
          </mxGeometry>
        </mxCell>
        <mxCell id="HkPxLdzzHPnUdWTfFzcf-113" style="shape=tableRow;horizontal=0;startSize=0;swimlaneHead=0;swimlaneBody=0;strokeColor=inherit;top=0;left=0;bottom=0;right=0;collapsible=0;dropTarget=0;fillColor=none;points=[[0,0.5],[1,0.5]];portConstraint=eastwest;fontSize=16;" parent="HkPxLdzzHPnUdWTfFzcf-103" vertex="1">
          <mxGeometry y="80" width="60" height="26" as="geometry" />
        </mxCell>
        <mxCell id="HkPxLdzzHPnUdWTfFzcf-114" value="5" style="shape=partialRectangle;html=1;whiteSpace=wrap;connectable=0;strokeColor=#005700;overflow=hidden;fillColor=#008a00;top=0;left=0;bottom=0;right=0;pointerEvents=1;fontSize=16;fontColor=#ffffff;" parent="HkPxLdzzHPnUdWTfFzcf-113" vertex="1">
          <mxGeometry width="30" height="26" as="geometry">
            <mxRectangle width="30" height="26" as="alternateBounds" />
          </mxGeometry>
        </mxCell>
        <mxCell id="HkPxLdzzHPnUdWTfFzcf-115" value="5" style="shape=partialRectangle;html=1;whiteSpace=wrap;connectable=0;strokeColor=#314354;overflow=hidden;fillColor=#647687;top=0;left=0;bottom=0;right=0;pointerEvents=1;fontSize=16;fontColor=#ffffff;" parent="HkPxLdzzHPnUdWTfFzcf-113" vertex="1">
          <mxGeometry x="30" width="30" height="26" as="geometry">
            <mxRectangle width="30" height="26" as="alternateBounds" />
          </mxGeometry>
        </mxCell>
        <mxCell id="HkPxLdzzHPnUdWTfFzcf-116" value="" style="shape=table;startSize=0;container=1;collapsible=0;childLayout=tableLayout;fontSize=16;" parent="1" vertex="1">
          <mxGeometry x="370" y="280" width="60" height="134" as="geometry" />
        </mxCell>
        <mxCell id="HkPxLdzzHPnUdWTfFzcf-117" style="shape=tableRow;horizontal=0;startSize=0;swimlaneHead=0;swimlaneBody=0;strokeColor=inherit;top=0;left=0;bottom=0;right=0;collapsible=0;dropTarget=0;fillColor=none;points=[[0,0.5],[1,0.5]];portConstraint=eastwest;fontSize=16;" parent="HkPxLdzzHPnUdWTfFzcf-116" vertex="1">
          <mxGeometry width="60" height="26" as="geometry" />
        </mxCell>
        <mxCell id="HkPxLdzzHPnUdWTfFzcf-118" value="1" style="shape=partialRectangle;html=1;whiteSpace=wrap;connectable=0;strokeColor=inherit;overflow=hidden;fillColor=none;top=0;left=0;bottom=0;right=0;pointerEvents=1;fontSize=16;" parent="HkPxLdzzHPnUdWTfFzcf-117" vertex="1">
          <mxGeometry width="30" height="26" as="geometry">
            <mxRectangle width="30" height="26" as="alternateBounds" />
          </mxGeometry>
        </mxCell>
        <mxCell id="HkPxLdzzHPnUdWTfFzcf-119" value="2" style="shape=partialRectangle;html=1;whiteSpace=wrap;connectable=0;strokeColor=inherit;overflow=hidden;fillColor=none;top=0;left=0;bottom=0;right=0;pointerEvents=1;fontSize=16;" parent="HkPxLdzzHPnUdWTfFzcf-117" vertex="1">
          <mxGeometry x="30" width="30" height="26" as="geometry">
            <mxRectangle width="30" height="26" as="alternateBounds" />
          </mxGeometry>
        </mxCell>
        <mxCell id="HkPxLdzzHPnUdWTfFzcf-120" style="shape=tableRow;horizontal=0;startSize=0;swimlaneHead=0;swimlaneBody=0;strokeColor=inherit;top=0;left=0;bottom=0;right=0;collapsible=0;dropTarget=0;fillColor=none;points=[[0,0.5],[1,0.5]];portConstraint=eastwest;fontSize=16;" parent="HkPxLdzzHPnUdWTfFzcf-116" vertex="1">
          <mxGeometry y="26" width="60" height="28" as="geometry" />
        </mxCell>
        <mxCell id="HkPxLdzzHPnUdWTfFzcf-121" value="3" style="shape=partialRectangle;html=1;whiteSpace=wrap;connectable=0;strokeColor=inherit;overflow=hidden;fillColor=none;top=0;left=0;bottom=0;right=0;pointerEvents=1;fontSize=16;" parent="HkPxLdzzHPnUdWTfFzcf-120" vertex="1">
          <mxGeometry width="30" height="28" as="geometry">
            <mxRectangle width="30" height="28" as="alternateBounds" />
          </mxGeometry>
        </mxCell>
        <mxCell id="HkPxLdzzHPnUdWTfFzcf-122" value="2" style="shape=partialRectangle;html=1;whiteSpace=wrap;connectable=0;strokeColor=inherit;overflow=hidden;fillColor=none;top=0;left=0;bottom=0;right=0;pointerEvents=1;fontSize=16;" parent="HkPxLdzzHPnUdWTfFzcf-120" vertex="1">
          <mxGeometry x="30" width="30" height="28" as="geometry">
            <mxRectangle width="30" height="28" as="alternateBounds" />
          </mxGeometry>
        </mxCell>
        <mxCell id="HkPxLdzzHPnUdWTfFzcf-123" style="shape=tableRow;horizontal=0;startSize=0;swimlaneHead=0;swimlaneBody=0;strokeColor=inherit;top=0;left=0;bottom=0;right=0;collapsible=0;dropTarget=0;fillColor=none;points=[[0,0.5],[1,0.5]];portConstraint=eastwest;fontSize=16;" parent="HkPxLdzzHPnUdWTfFzcf-116" vertex="1">
          <mxGeometry y="54" width="60" height="26" as="geometry" />
        </mxCell>
        <mxCell id="HkPxLdzzHPnUdWTfFzcf-124" value="4" style="shape=partialRectangle;html=1;whiteSpace=wrap;connectable=0;strokeColor=inherit;overflow=hidden;fillColor=none;top=0;left=0;bottom=0;right=0;pointerEvents=1;fontSize=16;" parent="HkPxLdzzHPnUdWTfFzcf-123" vertex="1">
          <mxGeometry width="30" height="26" as="geometry">
            <mxRectangle width="30" height="26" as="alternateBounds" />
          </mxGeometry>
        </mxCell>
        <mxCell id="HkPxLdzzHPnUdWTfFzcf-125" value="6" style="shape=partialRectangle;html=1;whiteSpace=wrap;connectable=0;strokeColor=inherit;overflow=hidden;fillColor=none;top=0;left=0;bottom=0;right=0;pointerEvents=1;fontSize=16;" parent="HkPxLdzzHPnUdWTfFzcf-123" vertex="1">
          <mxGeometry x="30" width="30" height="26" as="geometry">
            <mxRectangle width="30" height="26" as="alternateBounds" />
          </mxGeometry>
        </mxCell>
        <mxCell id="HkPxLdzzHPnUdWTfFzcf-126" value="" style="shape=tableRow;horizontal=0;startSize=0;swimlaneHead=0;swimlaneBody=0;strokeColor=inherit;top=0;left=0;bottom=0;right=0;collapsible=0;dropTarget=0;fillColor=none;points=[[0,0.5],[1,0.5]];portConstraint=eastwest;fontSize=16;" parent="HkPxLdzzHPnUdWTfFzcf-116" vertex="1">
          <mxGeometry y="80" width="60" height="26" as="geometry" />
        </mxCell>
        <mxCell id="HkPxLdzzHPnUdWTfFzcf-127" value="5" style="shape=partialRectangle;html=1;whiteSpace=wrap;connectable=0;strokeColor=inherit;overflow=hidden;fillColor=none;top=0;left=0;bottom=0;right=0;pointerEvents=1;fontSize=16;" parent="HkPxLdzzHPnUdWTfFzcf-126" vertex="1">
          <mxGeometry width="30" height="26" as="geometry">
            <mxRectangle width="30" height="26" as="alternateBounds" />
          </mxGeometry>
        </mxCell>
        <mxCell id="HkPxLdzzHPnUdWTfFzcf-128" value="6" style="shape=partialRectangle;html=1;whiteSpace=wrap;connectable=0;strokeColor=inherit;overflow=hidden;fillColor=none;top=0;left=0;bottom=0;right=0;pointerEvents=1;fontSize=16;" parent="HkPxLdzzHPnUdWTfFzcf-126" vertex="1">
          <mxGeometry x="30" width="30" height="26" as="geometry">
            <mxRectangle width="30" height="26" as="alternateBounds" />
          </mxGeometry>
        </mxCell>
        <mxCell id="HkPxLdzzHPnUdWTfFzcf-129" value="" style="shape=tableRow;horizontal=0;startSize=0;swimlaneHead=0;swimlaneBody=0;strokeColor=inherit;top=0;left=0;bottom=0;right=0;collapsible=0;dropTarget=0;fillColor=none;points=[[0,0.5],[1,0.5]];portConstraint=eastwest;fontSize=16;" parent="HkPxLdzzHPnUdWTfFzcf-116" vertex="1">
          <mxGeometry y="106" width="60" height="28" as="geometry" />
        </mxCell>
        <mxCell id="HkPxLdzzHPnUdWTfFzcf-130" value="7" style="shape=partialRectangle;html=1;whiteSpace=wrap;connectable=0;strokeColor=inherit;overflow=hidden;fillColor=none;top=0;left=0;bottom=0;right=0;pointerEvents=1;fontSize=16;" parent="HkPxLdzzHPnUdWTfFzcf-129" vertex="1">
          <mxGeometry width="30" height="28" as="geometry">
            <mxRectangle width="30" height="28" as="alternateBounds" />
          </mxGeometry>
        </mxCell>
        <mxCell id="HkPxLdzzHPnUdWTfFzcf-131" value="7" style="shape=partialRectangle;html=1;whiteSpace=wrap;connectable=0;strokeColor=inherit;overflow=hidden;fillColor=none;top=0;left=0;bottom=0;right=0;pointerEvents=1;fontSize=16;" parent="HkPxLdzzHPnUdWTfFzcf-129" vertex="1">
          <mxGeometry x="30" width="30" height="28" as="geometry">
            <mxRectangle width="30" height="28" as="alternateBounds" />
          </mxGeometry>
        </mxCell>
        <mxCell id="HkPxLdzzHPnUdWTfFzcf-132" value="" style="shape=table;startSize=0;container=1;collapsible=0;childLayout=tableLayout;fontSize=16;" parent="1" vertex="1">
          <mxGeometry x="370" y="460" width="60" height="158" as="geometry" />
        </mxCell>
        <mxCell id="HkPxLdzzHPnUdWTfFzcf-133" style="shape=tableRow;horizontal=0;startSize=0;swimlaneHead=0;swimlaneBody=0;strokeColor=inherit;top=0;left=0;bottom=0;right=0;collapsible=0;dropTarget=0;fillColor=none;points=[[0,0.5],[1,0.5]];portConstraint=eastwest;fontSize=16;" parent="HkPxLdzzHPnUdWTfFzcf-132" vertex="1">
          <mxGeometry width="60" height="26" as="geometry" />
        </mxCell>
        <mxCell id="HkPxLdzzHPnUdWTfFzcf-134" value="2" style="shape=partialRectangle;html=1;whiteSpace=wrap;connectable=0;strokeColor=inherit;overflow=hidden;fillColor=none;top=0;left=0;bottom=0;right=0;pointerEvents=1;fontSize=16;" parent="HkPxLdzzHPnUdWTfFzcf-133" vertex="1">
          <mxGeometry width="30" height="26" as="geometry">
            <mxRectangle width="30" height="26" as="alternateBounds" />
          </mxGeometry>
        </mxCell>
        <mxCell id="HkPxLdzzHPnUdWTfFzcf-135" value="1" style="shape=partialRectangle;html=1;whiteSpace=wrap;connectable=0;strokeColor=inherit;overflow=hidden;fillColor=none;top=0;left=0;bottom=0;right=0;pointerEvents=1;fontSize=16;" parent="HkPxLdzzHPnUdWTfFzcf-133" vertex="1">
          <mxGeometry x="30" width="30" height="26" as="geometry">
            <mxRectangle width="30" height="26" as="alternateBounds" />
          </mxGeometry>
        </mxCell>
        <mxCell id="HkPxLdzzHPnUdWTfFzcf-136" style="shape=tableRow;horizontal=0;startSize=0;swimlaneHead=0;swimlaneBody=0;strokeColor=inherit;top=0;left=0;bottom=0;right=0;collapsible=0;dropTarget=0;fillColor=none;points=[[0,0.5],[1,0.5]];portConstraint=eastwest;fontSize=16;" parent="HkPxLdzzHPnUdWTfFzcf-132" vertex="1">
          <mxGeometry y="26" width="60" height="28" as="geometry" />
        </mxCell>
        <mxCell id="HkPxLdzzHPnUdWTfFzcf-137" value="2" style="shape=partialRectangle;html=1;whiteSpace=wrap;connectable=0;strokeColor=inherit;overflow=hidden;fillColor=none;top=0;left=0;bottom=0;right=0;pointerEvents=1;fontSize=16;" parent="HkPxLdzzHPnUdWTfFzcf-136" vertex="1">
          <mxGeometry width="30" height="28" as="geometry">
            <mxRectangle width="30" height="28" as="alternateBounds" />
          </mxGeometry>
        </mxCell>
        <mxCell id="HkPxLdzzHPnUdWTfFzcf-138" value="3" style="shape=partialRectangle;html=1;whiteSpace=wrap;connectable=0;strokeColor=inherit;overflow=hidden;fillColor=none;top=0;left=0;bottom=0;right=0;pointerEvents=1;fontSize=16;" parent="HkPxLdzzHPnUdWTfFzcf-136" vertex="1">
          <mxGeometry x="30" width="30" height="28" as="geometry">
            <mxRectangle width="30" height="28" as="alternateBounds" />
          </mxGeometry>
        </mxCell>
        <mxCell id="HkPxLdzzHPnUdWTfFzcf-139" style="shape=tableRow;horizontal=0;startSize=0;swimlaneHead=0;swimlaneBody=0;strokeColor=inherit;top=0;left=0;bottom=0;right=0;collapsible=0;dropTarget=0;fillColor=none;points=[[0,0.5],[1,0.5]];portConstraint=eastwest;fontSize=16;" parent="HkPxLdzzHPnUdWTfFzcf-132" vertex="1">
          <mxGeometry y="54" width="60" height="26" as="geometry" />
        </mxCell>
        <mxCell id="HkPxLdzzHPnUdWTfFzcf-140" value="5" style="shape=partialRectangle;html=1;whiteSpace=wrap;connectable=0;strokeColor=inherit;overflow=hidden;fillColor=none;top=0;left=0;bottom=0;right=0;pointerEvents=1;fontSize=16;" parent="HkPxLdzzHPnUdWTfFzcf-139" vertex="1">
          <mxGeometry width="30" height="26" as="geometry">
            <mxRectangle width="30" height="26" as="alternateBounds" />
          </mxGeometry>
        </mxCell>
        <mxCell id="HkPxLdzzHPnUdWTfFzcf-141" value="4" style="shape=partialRectangle;html=1;whiteSpace=wrap;connectable=0;strokeColor=inherit;overflow=hidden;fillColor=none;top=0;left=0;bottom=0;right=0;pointerEvents=1;fontSize=16;" parent="HkPxLdzzHPnUdWTfFzcf-139" vertex="1">
          <mxGeometry x="30" width="30" height="26" as="geometry">
            <mxRectangle width="30" height="26" as="alternateBounds" />
          </mxGeometry>
        </mxCell>
        <mxCell id="HkPxLdzzHPnUdWTfFzcf-142" style="shape=tableRow;horizontal=0;startSize=0;swimlaneHead=0;swimlaneBody=0;strokeColor=inherit;top=0;left=0;bottom=0;right=0;collapsible=0;dropTarget=0;fillColor=none;points=[[0,0.5],[1,0.5]];portConstraint=eastwest;fontSize=16;" parent="HkPxLdzzHPnUdWTfFzcf-132" vertex="1">
          <mxGeometry y="80" width="60" height="26" as="geometry" />
        </mxCell>
        <mxCell id="HkPxLdzzHPnUdWTfFzcf-143" value="6" style="shape=partialRectangle;html=1;whiteSpace=wrap;connectable=0;strokeColor=inherit;overflow=hidden;fillColor=none;top=0;left=0;bottom=0;right=0;pointerEvents=1;fontSize=16;" parent="HkPxLdzzHPnUdWTfFzcf-142" vertex="1">
          <mxGeometry width="30" height="26" as="geometry">
            <mxRectangle width="30" height="26" as="alternateBounds" />
          </mxGeometry>
        </mxCell>
        <mxCell id="HkPxLdzzHPnUdWTfFzcf-144" value="4" style="shape=partialRectangle;html=1;whiteSpace=wrap;connectable=0;strokeColor=inherit;overflow=hidden;fillColor=none;top=0;left=0;bottom=0;right=0;pointerEvents=1;fontSize=16;" parent="HkPxLdzzHPnUdWTfFzcf-142" vertex="1">
          <mxGeometry x="30" width="30" height="26" as="geometry">
            <mxRectangle width="30" height="26" as="alternateBounds" />
          </mxGeometry>
        </mxCell>
        <mxCell id="SnXfCUuTCeVSRkXIkkFU-1" style="shape=tableRow;horizontal=0;startSize=0;swimlaneHead=0;swimlaneBody=0;strokeColor=inherit;top=0;left=0;bottom=0;right=0;collapsible=0;dropTarget=0;fillColor=none;points=[[0,0.5],[1,0.5]];portConstraint=eastwest;fontSize=16;" vertex="1" parent="HkPxLdzzHPnUdWTfFzcf-132">
          <mxGeometry y="106" width="60" height="26" as="geometry" />
        </mxCell>
        <mxCell id="SnXfCUuTCeVSRkXIkkFU-2" value="4" style="shape=partialRectangle;html=1;whiteSpace=wrap;connectable=0;strokeColor=inherit;overflow=hidden;fillColor=none;top=0;left=0;bottom=0;right=0;pointerEvents=1;fontSize=16;" vertex="1" parent="SnXfCUuTCeVSRkXIkkFU-1">
          <mxGeometry width="30" height="26" as="geometry">
            <mxRectangle width="30" height="26" as="alternateBounds" />
          </mxGeometry>
        </mxCell>
        <mxCell id="SnXfCUuTCeVSRkXIkkFU-3" value="5" style="shape=partialRectangle;html=1;whiteSpace=wrap;connectable=0;strokeColor=inherit;overflow=hidden;fillColor=none;top=0;left=0;bottom=0;right=0;pointerEvents=1;fontSize=16;" vertex="1" parent="SnXfCUuTCeVSRkXIkkFU-1">
          <mxGeometry x="30" width="30" height="26" as="geometry">
            <mxRectangle width="30" height="26" as="alternateBounds" />
          </mxGeometry>
        </mxCell>
        <mxCell id="SnXfCUuTCeVSRkXIkkFU-4" style="shape=tableRow;horizontal=0;startSize=0;swimlaneHead=0;swimlaneBody=0;strokeColor=inherit;top=0;left=0;bottom=0;right=0;collapsible=0;dropTarget=0;fillColor=none;points=[[0,0.5],[1,0.5]];portConstraint=eastwest;fontSize=16;" vertex="1" parent="HkPxLdzzHPnUdWTfFzcf-132">
          <mxGeometry y="132" width="60" height="26" as="geometry" />
        </mxCell>
        <mxCell id="SnXfCUuTCeVSRkXIkkFU-5" value="6" style="shape=partialRectangle;html=1;whiteSpace=wrap;connectable=0;strokeColor=inherit;overflow=hidden;fillColor=none;top=0;left=0;bottom=0;right=0;pointerEvents=1;fontSize=16;" vertex="1" parent="SnXfCUuTCeVSRkXIkkFU-4">
          <mxGeometry width="30" height="26" as="geometry">
            <mxRectangle width="30" height="26" as="alternateBounds" />
          </mxGeometry>
        </mxCell>
        <mxCell id="SnXfCUuTCeVSRkXIkkFU-6" value="5" style="shape=partialRectangle;html=1;whiteSpace=wrap;connectable=0;strokeColor=inherit;overflow=hidden;fillColor=none;top=0;left=0;bottom=0;right=0;pointerEvents=1;fontSize=16;" vertex="1" parent="SnXfCUuTCeVSRkXIkkFU-4">
          <mxGeometry x="30" width="30" height="26" as="geometry">
            <mxRectangle width="30" height="26" as="alternateBounds" />
          </mxGeometry>
        </mxCell>
        <mxCell id="SnXfCUuTCeVSRkXIkkFU-7" value="" style="shape=table;startSize=0;container=1;collapsible=0;childLayout=tableLayout;fontSize=16;" vertex="1" parent="1">
          <mxGeometry x="526" y="280" width="60" height="134" as="geometry" />
        </mxCell>
        <mxCell id="SnXfCUuTCeVSRkXIkkFU-8" style="shape=tableRow;horizontal=0;startSize=0;swimlaneHead=0;swimlaneBody=0;strokeColor=inherit;top=0;left=0;bottom=0;right=0;collapsible=0;dropTarget=0;fillColor=none;points=[[0,0.5],[1,0.5]];portConstraint=eastwest;fontSize=16;" vertex="1" parent="SnXfCUuTCeVSRkXIkkFU-7">
          <mxGeometry width="60" height="26" as="geometry" />
        </mxCell>
        <mxCell id="SnXfCUuTCeVSRkXIkkFU-9" value="2" style="shape=partialRectangle;html=1;whiteSpace=wrap;connectable=0;strokeColor=inherit;overflow=hidden;fillColor=none;top=0;left=0;bottom=0;right=0;pointerEvents=1;fontSize=16;" vertex="1" parent="SnXfCUuTCeVSRkXIkkFU-8">
          <mxGeometry width="30" height="26" as="geometry">
            <mxRectangle width="30" height="26" as="alternateBounds" />
          </mxGeometry>
        </mxCell>
        <mxCell id="SnXfCUuTCeVSRkXIkkFU-10" value="1" style="shape=partialRectangle;html=1;whiteSpace=wrap;connectable=0;strokeColor=inherit;overflow=hidden;fillColor=none;top=0;left=0;bottom=0;right=0;pointerEvents=1;fontSize=16;" vertex="1" parent="SnXfCUuTCeVSRkXIkkFU-8">
          <mxGeometry x="30" width="30" height="26" as="geometry">
            <mxRectangle width="30" height="26" as="alternateBounds" />
          </mxGeometry>
        </mxCell>
        <mxCell id="SnXfCUuTCeVSRkXIkkFU-11" style="shape=tableRow;horizontal=0;startSize=0;swimlaneHead=0;swimlaneBody=0;strokeColor=inherit;top=0;left=0;bottom=0;right=0;collapsible=0;dropTarget=0;fillColor=none;points=[[0,0.5],[1,0.5]];portConstraint=eastwest;fontSize=16;" vertex="1" parent="SnXfCUuTCeVSRkXIkkFU-7">
          <mxGeometry y="26" width="60" height="28" as="geometry" />
        </mxCell>
        <mxCell id="SnXfCUuTCeVSRkXIkkFU-12" value="2" style="shape=partialRectangle;html=1;whiteSpace=wrap;connectable=0;strokeColor=inherit;overflow=hidden;fillColor=none;top=0;left=0;bottom=0;right=0;pointerEvents=1;fontSize=16;" vertex="1" parent="SnXfCUuTCeVSRkXIkkFU-11">
          <mxGeometry width="30" height="28" as="geometry">
            <mxRectangle width="30" height="28" as="alternateBounds" />
          </mxGeometry>
        </mxCell>
        <mxCell id="SnXfCUuTCeVSRkXIkkFU-13" value="3" style="shape=partialRectangle;html=1;whiteSpace=wrap;connectable=0;strokeColor=inherit;overflow=hidden;fillColor=none;top=0;left=0;bottom=0;right=0;pointerEvents=1;fontSize=16;" vertex="1" parent="SnXfCUuTCeVSRkXIkkFU-11">
          <mxGeometry x="30" width="30" height="28" as="geometry">
            <mxRectangle width="30" height="28" as="alternateBounds" />
          </mxGeometry>
        </mxCell>
        <mxCell id="SnXfCUuTCeVSRkXIkkFU-14" style="shape=tableRow;horizontal=0;startSize=0;swimlaneHead=0;swimlaneBody=0;strokeColor=inherit;top=0;left=0;bottom=0;right=0;collapsible=0;dropTarget=0;fillColor=none;points=[[0,0.5],[1,0.5]];portConstraint=eastwest;fontSize=16;" vertex="1" parent="SnXfCUuTCeVSRkXIkkFU-7">
          <mxGeometry y="54" width="60" height="26" as="geometry" />
        </mxCell>
        <mxCell id="SnXfCUuTCeVSRkXIkkFU-15" value="6" style="shape=partialRectangle;html=1;whiteSpace=wrap;connectable=0;strokeColor=inherit;overflow=hidden;fillColor=none;top=0;left=0;bottom=0;right=0;pointerEvents=1;fontSize=16;" vertex="1" parent="SnXfCUuTCeVSRkXIkkFU-14">
          <mxGeometry width="30" height="26" as="geometry">
            <mxRectangle width="30" height="26" as="alternateBounds" />
          </mxGeometry>
        </mxCell>
        <mxCell id="SnXfCUuTCeVSRkXIkkFU-16" value="4" style="shape=partialRectangle;html=1;whiteSpace=wrap;connectable=0;strokeColor=inherit;overflow=hidden;fillColor=none;top=0;left=0;bottom=0;right=0;pointerEvents=1;fontSize=16;" vertex="1" parent="SnXfCUuTCeVSRkXIkkFU-14">
          <mxGeometry x="30" width="30" height="26" as="geometry">
            <mxRectangle width="30" height="26" as="alternateBounds" />
          </mxGeometry>
        </mxCell>
        <mxCell id="SnXfCUuTCeVSRkXIkkFU-17" value="" style="shape=tableRow;horizontal=0;startSize=0;swimlaneHead=0;swimlaneBody=0;strokeColor=inherit;top=0;left=0;bottom=0;right=0;collapsible=0;dropTarget=0;fillColor=none;points=[[0,0.5],[1,0.5]];portConstraint=eastwest;fontSize=16;" vertex="1" parent="SnXfCUuTCeVSRkXIkkFU-7">
          <mxGeometry y="80" width="60" height="26" as="geometry" />
        </mxCell>
        <mxCell id="SnXfCUuTCeVSRkXIkkFU-18" value="6" style="shape=partialRectangle;html=1;whiteSpace=wrap;connectable=0;strokeColor=inherit;overflow=hidden;fillColor=none;top=0;left=0;bottom=0;right=0;pointerEvents=1;fontSize=16;" vertex="1" parent="SnXfCUuTCeVSRkXIkkFU-17">
          <mxGeometry width="30" height="26" as="geometry">
            <mxRectangle width="30" height="26" as="alternateBounds" />
          </mxGeometry>
        </mxCell>
        <mxCell id="SnXfCUuTCeVSRkXIkkFU-19" value="5" style="shape=partialRectangle;html=1;whiteSpace=wrap;connectable=0;strokeColor=inherit;overflow=hidden;fillColor=none;top=0;left=0;bottom=0;right=0;pointerEvents=1;fontSize=16;" vertex="1" parent="SnXfCUuTCeVSRkXIkkFU-17">
          <mxGeometry x="30" width="30" height="26" as="geometry">
            <mxRectangle width="30" height="26" as="alternateBounds" />
          </mxGeometry>
        </mxCell>
        <mxCell id="SnXfCUuTCeVSRkXIkkFU-20" value="" style="shape=tableRow;horizontal=0;startSize=0;swimlaneHead=0;swimlaneBody=0;strokeColor=inherit;top=0;left=0;bottom=0;right=0;collapsible=0;dropTarget=0;fillColor=none;points=[[0,0.5],[1,0.5]];portConstraint=eastwest;fontSize=16;" vertex="1" parent="SnXfCUuTCeVSRkXIkkFU-7">
          <mxGeometry y="106" width="60" height="28" as="geometry" />
        </mxCell>
        <mxCell id="SnXfCUuTCeVSRkXIkkFU-21" value="7" style="shape=partialRectangle;html=1;whiteSpace=wrap;connectable=0;strokeColor=inherit;overflow=hidden;fillColor=none;top=0;left=0;bottom=0;right=0;pointerEvents=1;fontSize=16;" vertex="1" parent="SnXfCUuTCeVSRkXIkkFU-20">
          <mxGeometry width="30" height="28" as="geometry">
            <mxRectangle width="30" height="28" as="alternateBounds" />
          </mxGeometry>
        </mxCell>
        <mxCell id="SnXfCUuTCeVSRkXIkkFU-22" value="7" style="shape=partialRectangle;html=1;whiteSpace=wrap;connectable=0;strokeColor=inherit;overflow=hidden;fillColor=none;top=0;left=0;bottom=0;right=0;pointerEvents=1;fontSize=16;" vertex="1" parent="SnXfCUuTCeVSRkXIkkFU-20">
          <mxGeometry x="30" width="30" height="28" as="geometry">
            <mxRectangle width="30" height="28" as="alternateBounds" />
          </mxGeometry>
        </mxCell>
        <mxCell id="SnXfCUuTCeVSRkXIkkFU-23" value="" style="shape=table;startSize=0;container=1;collapsible=0;childLayout=tableLayout;fontSize=16;" vertex="1" parent="1">
          <mxGeometry x="526" y="460" width="60" height="158" as="geometry" />
        </mxCell>
        <mxCell id="SnXfCUuTCeVSRkXIkkFU-24" style="shape=tableRow;horizontal=0;startSize=0;swimlaneHead=0;swimlaneBody=0;strokeColor=inherit;top=0;left=0;bottom=0;right=0;collapsible=0;dropTarget=0;fillColor=none;points=[[0,0.5],[1,0.5]];portConstraint=eastwest;fontSize=16;" vertex="1" parent="SnXfCUuTCeVSRkXIkkFU-23">
          <mxGeometry width="60" height="26" as="geometry" />
        </mxCell>
        <mxCell id="SnXfCUuTCeVSRkXIkkFU-25" value="1" style="shape=partialRectangle;html=1;whiteSpace=wrap;connectable=0;strokeColor=inherit;overflow=hidden;fillColor=none;top=0;left=0;bottom=0;right=0;pointerEvents=1;fontSize=16;" vertex="1" parent="SnXfCUuTCeVSRkXIkkFU-24">
          <mxGeometry width="30" height="26" as="geometry">
            <mxRectangle width="30" height="26" as="alternateBounds" />
          </mxGeometry>
        </mxCell>
        <mxCell id="SnXfCUuTCeVSRkXIkkFU-26" value="2" style="shape=partialRectangle;html=1;whiteSpace=wrap;connectable=0;strokeColor=inherit;overflow=hidden;fillColor=none;top=0;left=0;bottom=0;right=0;pointerEvents=1;fontSize=16;" vertex="1" parent="SnXfCUuTCeVSRkXIkkFU-24">
          <mxGeometry x="30" width="30" height="26" as="geometry">
            <mxRectangle width="30" height="26" as="alternateBounds" />
          </mxGeometry>
        </mxCell>
        <mxCell id="SnXfCUuTCeVSRkXIkkFU-27" style="shape=tableRow;horizontal=0;startSize=0;swimlaneHead=0;swimlaneBody=0;strokeColor=inherit;top=0;left=0;bottom=0;right=0;collapsible=0;dropTarget=0;fillColor=none;points=[[0,0.5],[1,0.5]];portConstraint=eastwest;fontSize=16;" vertex="1" parent="SnXfCUuTCeVSRkXIkkFU-23">
          <mxGeometry y="26" width="60" height="28" as="geometry" />
        </mxCell>
        <mxCell id="SnXfCUuTCeVSRkXIkkFU-28" value="3" style="shape=partialRectangle;html=1;whiteSpace=wrap;connectable=0;strokeColor=inherit;overflow=hidden;fillColor=none;top=0;left=0;bottom=0;right=0;pointerEvents=1;fontSize=16;" vertex="1" parent="SnXfCUuTCeVSRkXIkkFU-27">
          <mxGeometry width="30" height="28" as="geometry">
            <mxRectangle width="30" height="28" as="alternateBounds" />
          </mxGeometry>
        </mxCell>
        <mxCell id="SnXfCUuTCeVSRkXIkkFU-29" value="2" style="shape=partialRectangle;html=1;whiteSpace=wrap;connectable=0;strokeColor=inherit;overflow=hidden;fillColor=none;top=0;left=0;bottom=0;right=0;pointerEvents=1;fontSize=16;" vertex="1" parent="SnXfCUuTCeVSRkXIkkFU-27">
          <mxGeometry x="30" width="30" height="28" as="geometry">
            <mxRectangle width="30" height="28" as="alternateBounds" />
          </mxGeometry>
        </mxCell>
        <mxCell id="SnXfCUuTCeVSRkXIkkFU-30" style="shape=tableRow;horizontal=0;startSize=0;swimlaneHead=0;swimlaneBody=0;strokeColor=inherit;top=0;left=0;bottom=0;right=0;collapsible=0;dropTarget=0;fillColor=none;points=[[0,0.5],[1,0.5]];portConstraint=eastwest;fontSize=16;" vertex="1" parent="SnXfCUuTCeVSRkXIkkFU-23">
          <mxGeometry y="54" width="60" height="26" as="geometry" />
        </mxCell>
        <mxCell id="SnXfCUuTCeVSRkXIkkFU-31" value="4" style="shape=partialRectangle;html=1;whiteSpace=wrap;connectable=0;strokeColor=inherit;overflow=hidden;fillColor=none;top=0;left=0;bottom=0;right=0;pointerEvents=1;fontSize=16;" vertex="1" parent="SnXfCUuTCeVSRkXIkkFU-30">
          <mxGeometry width="30" height="26" as="geometry">
            <mxRectangle width="30" height="26" as="alternateBounds" />
          </mxGeometry>
        </mxCell>
        <mxCell id="SnXfCUuTCeVSRkXIkkFU-32" value="5" style="shape=partialRectangle;html=1;whiteSpace=wrap;connectable=0;strokeColor=inherit;overflow=hidden;fillColor=none;top=0;left=0;bottom=0;right=0;pointerEvents=1;fontSize=16;" vertex="1" parent="SnXfCUuTCeVSRkXIkkFU-30">
          <mxGeometry x="30" width="30" height="26" as="geometry">
            <mxRectangle width="30" height="26" as="alternateBounds" />
          </mxGeometry>
        </mxCell>
        <mxCell id="SnXfCUuTCeVSRkXIkkFU-33" style="shape=tableRow;horizontal=0;startSize=0;swimlaneHead=0;swimlaneBody=0;strokeColor=inherit;top=0;left=0;bottom=0;right=0;collapsible=0;dropTarget=0;fillColor=none;points=[[0,0.5],[1,0.5]];portConstraint=eastwest;fontSize=16;" vertex="1" parent="SnXfCUuTCeVSRkXIkkFU-23">
          <mxGeometry y="80" width="60" height="26" as="geometry" />
        </mxCell>
        <mxCell id="SnXfCUuTCeVSRkXIkkFU-34" value="4" style="shape=partialRectangle;html=1;whiteSpace=wrap;connectable=0;strokeColor=inherit;overflow=hidden;fillColor=none;top=0;left=0;bottom=0;right=0;pointerEvents=1;fontSize=16;" vertex="1" parent="SnXfCUuTCeVSRkXIkkFU-33">
          <mxGeometry width="30" height="26" as="geometry">
            <mxRectangle width="30" height="26" as="alternateBounds" />
          </mxGeometry>
        </mxCell>
        <mxCell id="SnXfCUuTCeVSRkXIkkFU-35" value="6" style="shape=partialRectangle;html=1;whiteSpace=wrap;connectable=0;strokeColor=inherit;overflow=hidden;fillColor=none;top=0;left=0;bottom=0;right=0;pointerEvents=1;fontSize=16;" vertex="1" parent="SnXfCUuTCeVSRkXIkkFU-33">
          <mxGeometry x="30" width="30" height="26" as="geometry">
            <mxRectangle width="30" height="26" as="alternateBounds" />
          </mxGeometry>
        </mxCell>
        <mxCell id="SnXfCUuTCeVSRkXIkkFU-36" style="shape=tableRow;horizontal=0;startSize=0;swimlaneHead=0;swimlaneBody=0;strokeColor=inherit;top=0;left=0;bottom=0;right=0;collapsible=0;dropTarget=0;fillColor=none;points=[[0,0.5],[1,0.5]];portConstraint=eastwest;fontSize=16;" vertex="1" parent="SnXfCUuTCeVSRkXIkkFU-23">
          <mxGeometry y="106" width="60" height="26" as="geometry" />
        </mxCell>
        <mxCell id="SnXfCUuTCeVSRkXIkkFU-37" value="5" style="shape=partialRectangle;html=1;whiteSpace=wrap;connectable=0;strokeColor=inherit;overflow=hidden;fillColor=none;top=0;left=0;bottom=0;right=0;pointerEvents=1;fontSize=16;" vertex="1" parent="SnXfCUuTCeVSRkXIkkFU-36">
          <mxGeometry width="30" height="26" as="geometry">
            <mxRectangle width="30" height="26" as="alternateBounds" />
          </mxGeometry>
        </mxCell>
        <mxCell id="SnXfCUuTCeVSRkXIkkFU-38" value="4" style="shape=partialRectangle;html=1;whiteSpace=wrap;connectable=0;strokeColor=inherit;overflow=hidden;fillColor=none;top=0;left=0;bottom=0;right=0;pointerEvents=1;fontSize=16;" vertex="1" parent="SnXfCUuTCeVSRkXIkkFU-36">
          <mxGeometry x="30" width="30" height="26" as="geometry">
            <mxRectangle width="30" height="26" as="alternateBounds" />
          </mxGeometry>
        </mxCell>
        <mxCell id="SnXfCUuTCeVSRkXIkkFU-39" style="shape=tableRow;horizontal=0;startSize=0;swimlaneHead=0;swimlaneBody=0;strokeColor=inherit;top=0;left=0;bottom=0;right=0;collapsible=0;dropTarget=0;fillColor=none;points=[[0,0.5],[1,0.5]];portConstraint=eastwest;fontSize=16;" vertex="1" parent="SnXfCUuTCeVSRkXIkkFU-23">
          <mxGeometry y="132" width="60" height="26" as="geometry" />
        </mxCell>
        <mxCell id="SnXfCUuTCeVSRkXIkkFU-40" value="5" style="shape=partialRectangle;html=1;whiteSpace=wrap;connectable=0;strokeColor=inherit;overflow=hidden;fillColor=none;top=0;left=0;bottom=0;right=0;pointerEvents=1;fontSize=16;" vertex="1" parent="SnXfCUuTCeVSRkXIkkFU-39">
          <mxGeometry width="30" height="26" as="geometry">
            <mxRectangle width="30" height="26" as="alternateBounds" />
          </mxGeometry>
        </mxCell>
        <mxCell id="SnXfCUuTCeVSRkXIkkFU-41" value="6" style="shape=partialRectangle;html=1;whiteSpace=wrap;connectable=0;strokeColor=inherit;overflow=hidden;fillColor=none;top=0;left=0;bottom=0;right=0;pointerEvents=1;fontSize=16;" vertex="1" parent="SnXfCUuTCeVSRkXIkkFU-39">
          <mxGeometry x="30" width="30" height="26" as="geometry">
            <mxRectangle width="30" height="26" as="alternateBounds" />
          </mxGeometry>
        </mxCell>
        <mxCell id="SnXfCUuTCeVSRkXIkkFU-42" style="edgeStyle=orthogonalEdgeStyle;rounded=0;orthogonalLoop=1;jettySize=auto;html=1;exitX=1;exitY=0.5;exitDx=0;exitDy=0;fillColor=#1ba1e2;strokeColor=#006EAF;strokeWidth=2;entryX=0.01;entryY=0.083;entryDx=0;entryDy=0;entryPerimeter=0;" edge="1" parent="1" source="HkPxLdzzHPnUdWTfFzcf-117" target="SnXfCUuTCeVSRkXIkkFU-23">
          <mxGeometry relative="1" as="geometry">
            <mxPoint x="440" y="290" as="sourcePoint" />
            <Array as="points">
              <mxPoint x="470" y="293" />
              <mxPoint x="470" y="473" />
            </Array>
            <mxPoint x="526" y="470" as="targetPoint" />
          </mxGeometry>
        </mxCell>
        <mxCell id="SnXfCUuTCeVSRkXIkkFU-43" style="edgeStyle=orthogonalEdgeStyle;rounded=0;orthogonalLoop=1;jettySize=auto;html=1;exitX=1;exitY=0.5;exitDx=0;exitDy=0;fillColor=#1ba1e2;strokeColor=#006EAF;strokeWidth=2;entryX=0;entryY=0.5;entryDx=0;entryDy=0;" edge="1" parent="1" source="HkPxLdzzHPnUdWTfFzcf-120" target="SnXfCUuTCeVSRkXIkkFU-27">
          <mxGeometry relative="1" as="geometry">
            <mxPoint x="440" y="303" as="sourcePoint" />
            <Array as="points">
              <mxPoint x="460" y="320" />
              <mxPoint x="460" y="500" />
            </Array>
            <mxPoint x="629" y="483" as="targetPoint" />
          </mxGeometry>
        </mxCell>
        <mxCell id="SnXfCUuTCeVSRkXIkkFU-44" style="edgeStyle=orthogonalEdgeStyle;rounded=0;orthogonalLoop=1;jettySize=auto;html=1;exitX=1;exitY=0.5;exitDx=0;exitDy=0;fillColor=#1ba1e2;strokeColor=#006EAF;strokeWidth=2;entryX=0;entryY=0.5;entryDx=0;entryDy=0;" edge="1" parent="1" source="HkPxLdzzHPnUdWTfFzcf-123" target="SnXfCUuTCeVSRkXIkkFU-33">
          <mxGeometry relative="1" as="geometry">
            <mxPoint x="450" y="313" as="sourcePoint" />
            <Array as="points">
              <mxPoint x="450" y="347" />
              <mxPoint x="450" y="553" />
            </Array>
            <mxPoint x="639" y="493" as="targetPoint" />
          </mxGeometry>
        </mxCell>
        <mxCell id="SnXfCUuTCeVSRkXIkkFU-45" style="edgeStyle=orthogonalEdgeStyle;rounded=0;orthogonalLoop=1;jettySize=auto;html=1;exitX=1;exitY=0.5;exitDx=0;exitDy=0;fillColor=#1ba1e2;strokeColor=#006EAF;strokeWidth=2;entryX=0;entryY=0.5;entryDx=0;entryDy=0;" edge="1" parent="1" source="HkPxLdzzHPnUdWTfFzcf-126" target="SnXfCUuTCeVSRkXIkkFU-39">
          <mxGeometry relative="1" as="geometry">
            <mxPoint x="460" y="323" as="sourcePoint" />
            <Array as="points">
              <mxPoint x="440" y="373" />
              <mxPoint x="440" y="605" />
            </Array>
            <mxPoint x="649" y="503" as="targetPoint" />
          </mxGeometry>
        </mxCell>
        <mxCell id="SnXfCUuTCeVSRkXIkkFU-46" style="edgeStyle=orthogonalEdgeStyle;rounded=0;orthogonalLoop=1;jettySize=auto;html=1;fillColor=#d80073;strokeColor=#A50040;strokeWidth=2;entryX=0.021;entryY=0.069;entryDx=0;entryDy=0;entryPerimeter=0;" edge="1" parent="1" target="SnXfCUuTCeVSRkXIkkFU-7">
          <mxGeometry relative="1" as="geometry">
            <mxPoint x="430" y="470" as="sourcePoint" />
            <mxPoint x="610" y="289" as="targetPoint" />
            <Array as="points">
              <mxPoint x="480" y="470" />
              <mxPoint x="480" y="289" />
            </Array>
          </mxGeometry>
        </mxCell>
        <mxCell id="SnXfCUuTCeVSRkXIkkFU-47" style="edgeStyle=orthogonalEdgeStyle;rounded=0;orthogonalLoop=1;jettySize=auto;html=1;fillColor=#d80073;strokeColor=#A50040;strokeWidth=2;entryX=0;entryY=0.5;entryDx=0;entryDy=0;exitX=1.005;exitY=0.773;exitDx=0;exitDy=0;exitPerimeter=0;" edge="1" parent="1" source="HkPxLdzzHPnUdWTfFzcf-136" target="SnXfCUuTCeVSRkXIkkFU-11">
          <mxGeometry relative="1" as="geometry">
            <mxPoint x="440" y="480" as="sourcePoint" />
            <mxPoint x="629" y="299" as="targetPoint" />
            <Array as="points">
              <mxPoint x="490" y="508" />
              <mxPoint x="490" y="320" />
            </Array>
          </mxGeometry>
        </mxCell>
        <mxCell id="SnXfCUuTCeVSRkXIkkFU-48" style="edgeStyle=orthogonalEdgeStyle;rounded=0;orthogonalLoop=1;jettySize=auto;html=1;fillColor=#d80073;strokeColor=#A50040;strokeWidth=2;entryX=0;entryY=0.5;entryDx=0;entryDy=0;" edge="1" parent="1" target="SnXfCUuTCeVSRkXIkkFU-14">
          <mxGeometry relative="1" as="geometry">
            <mxPoint x="430" y="550" as="sourcePoint" />
            <mxPoint x="628" y="330" as="targetPoint" />
            <Array as="points">
              <mxPoint x="500" y="550" />
              <mxPoint x="500" y="347" />
            </Array>
          </mxGeometry>
        </mxCell>
        <mxCell id="SnXfCUuTCeVSRkXIkkFU-49" style="edgeStyle=orthogonalEdgeStyle;rounded=0;orthogonalLoop=1;jettySize=auto;html=1;fillColor=#d80073;strokeColor=#A50040;strokeWidth=2;entryX=0;entryY=0.5;entryDx=0;entryDy=0;" edge="1" parent="1" target="SnXfCUuTCeVSRkXIkkFU-17">
          <mxGeometry relative="1" as="geometry">
            <mxPoint x="430" y="600" as="sourcePoint" />
            <mxPoint x="638" y="340" as="targetPoint" />
            <Array as="points">
              <mxPoint x="510" y="600" />
              <mxPoint x="510" y="373" />
            </Array>
          </mxGeometry>
        </mxCell>
        <mxCell id="SnXfCUuTCeVSRkXIkkFU-50" value="" style="shape=table;startSize=0;container=1;collapsible=0;childLayout=tableLayout;fontSize=16;" vertex="1" parent="1">
          <mxGeometry x="620" y="280" width="60" height="80" as="geometry" />
        </mxCell>
        <mxCell id="SnXfCUuTCeVSRkXIkkFU-51" style="shape=tableRow;horizontal=0;startSize=0;swimlaneHead=0;swimlaneBody=0;strokeColor=inherit;top=0;left=0;bottom=0;right=0;collapsible=0;dropTarget=0;fillColor=none;points=[[0,0.5],[1,0.5]];portConstraint=eastwest;fontSize=16;" vertex="1" parent="SnXfCUuTCeVSRkXIkkFU-50">
          <mxGeometry width="60" height="26" as="geometry" />
        </mxCell>
        <mxCell id="SnXfCUuTCeVSRkXIkkFU-52" value="2" style="shape=partialRectangle;html=1;whiteSpace=wrap;connectable=0;strokeColor=#005700;overflow=hidden;fillColor=#008a00;top=0;left=0;bottom=0;right=0;pointerEvents=1;fontSize=16;fontColor=#ffffff;" vertex="1" parent="SnXfCUuTCeVSRkXIkkFU-51">
          <mxGeometry width="30" height="26" as="geometry">
            <mxRectangle width="30" height="26" as="alternateBounds" />
          </mxGeometry>
        </mxCell>
        <mxCell id="SnXfCUuTCeVSRkXIkkFU-53" value="1" style="shape=partialRectangle;html=1;whiteSpace=wrap;connectable=0;strokeColor=#314354;overflow=hidden;fillColor=#647687;top=0;left=0;bottom=0;right=0;pointerEvents=1;fontSize=16;fontColor=#ffffff;" vertex="1" parent="SnXfCUuTCeVSRkXIkkFU-51">
          <mxGeometry x="30" width="30" height="26" as="geometry">
            <mxRectangle width="30" height="26" as="alternateBounds" />
          </mxGeometry>
        </mxCell>
        <mxCell id="SnXfCUuTCeVSRkXIkkFU-54" style="shape=tableRow;horizontal=0;startSize=0;swimlaneHead=0;swimlaneBody=0;strokeColor=inherit;top=0;left=0;bottom=0;right=0;collapsible=0;dropTarget=0;fillColor=none;points=[[0,0.5],[1,0.5]];portConstraint=eastwest;fontSize=16;" vertex="1" parent="SnXfCUuTCeVSRkXIkkFU-50">
          <mxGeometry y="26" width="60" height="28" as="geometry" />
        </mxCell>
        <mxCell id="SnXfCUuTCeVSRkXIkkFU-55" value="6" style="shape=partialRectangle;html=1;whiteSpace=wrap;connectable=0;strokeColor=#005700;overflow=hidden;fillColor=#008a00;top=0;left=0;bottom=0;right=0;pointerEvents=1;fontSize=16;fontColor=#ffffff;" vertex="1" parent="SnXfCUuTCeVSRkXIkkFU-54">
          <mxGeometry width="30" height="28" as="geometry">
            <mxRectangle width="30" height="28" as="alternateBounds" />
          </mxGeometry>
        </mxCell>
        <mxCell id="SnXfCUuTCeVSRkXIkkFU-56" value="4" style="shape=partialRectangle;html=1;whiteSpace=wrap;connectable=0;strokeColor=#314354;overflow=hidden;fillColor=#647687;top=0;left=0;bottom=0;right=0;pointerEvents=1;fontSize=16;fontColor=#ffffff;" vertex="1" parent="SnXfCUuTCeVSRkXIkkFU-54">
          <mxGeometry x="30" width="30" height="28" as="geometry">
            <mxRectangle width="30" height="28" as="alternateBounds" />
          </mxGeometry>
        </mxCell>
        <mxCell id="SnXfCUuTCeVSRkXIkkFU-57" style="shape=tableRow;horizontal=0;startSize=0;swimlaneHead=0;swimlaneBody=0;strokeColor=inherit;top=0;left=0;bottom=0;right=0;collapsible=0;dropTarget=0;fillColor=none;points=[[0,0.5],[1,0.5]];portConstraint=eastwest;fontSize=16;" vertex="1" parent="SnXfCUuTCeVSRkXIkkFU-50">
          <mxGeometry y="54" width="60" height="26" as="geometry" />
        </mxCell>
        <mxCell id="SnXfCUuTCeVSRkXIkkFU-58" value="7" style="shape=partialRectangle;html=1;whiteSpace=wrap;connectable=0;strokeColor=inherit;overflow=hidden;fillColor=none;top=0;left=0;bottom=0;right=0;pointerEvents=1;fontSize=16;" vertex="1" parent="SnXfCUuTCeVSRkXIkkFU-57">
          <mxGeometry width="30" height="26" as="geometry">
            <mxRectangle width="30" height="26" as="alternateBounds" />
          </mxGeometry>
        </mxCell>
        <mxCell id="SnXfCUuTCeVSRkXIkkFU-59" value="7" style="shape=partialRectangle;html=1;whiteSpace=wrap;connectable=0;strokeColor=inherit;overflow=hidden;fillColor=none;top=0;left=0;bottom=0;right=0;pointerEvents=1;fontSize=16;" vertex="1" parent="SnXfCUuTCeVSRkXIkkFU-57">
          <mxGeometry x="30" width="30" height="26" as="geometry">
            <mxRectangle width="30" height="26" as="alternateBounds" />
          </mxGeometry>
        </mxCell>
        <mxCell id="SnXfCUuTCeVSRkXIkkFU-60" value="" style="shape=table;startSize=0;container=1;collapsible=0;childLayout=tableLayout;fontSize=16;" vertex="1" parent="1">
          <mxGeometry x="620" y="460" width="60" height="106" as="geometry" />
        </mxCell>
        <mxCell id="SnXfCUuTCeVSRkXIkkFU-61" style="shape=tableRow;horizontal=0;startSize=0;swimlaneHead=0;swimlaneBody=0;strokeColor=inherit;top=0;left=0;bottom=0;right=0;collapsible=0;dropTarget=0;fillColor=none;points=[[0,0.5],[1,0.5]];portConstraint=eastwest;fontSize=16;" vertex="1" parent="SnXfCUuTCeVSRkXIkkFU-60">
          <mxGeometry width="60" height="26" as="geometry" />
        </mxCell>
        <mxCell id="SnXfCUuTCeVSRkXIkkFU-62" value="1" style="shape=partialRectangle;html=1;whiteSpace=wrap;connectable=0;strokeColor=inherit;overflow=hidden;fillColor=none;top=0;left=0;bottom=0;right=0;pointerEvents=1;fontSize=16;" vertex="1" parent="SnXfCUuTCeVSRkXIkkFU-61">
          <mxGeometry width="30" height="26" as="geometry">
            <mxRectangle width="30" height="26" as="alternateBounds" />
          </mxGeometry>
        </mxCell>
        <mxCell id="SnXfCUuTCeVSRkXIkkFU-63" value="1" style="shape=partialRectangle;html=1;whiteSpace=wrap;connectable=0;strokeColor=inherit;overflow=hidden;fillColor=none;top=0;left=0;bottom=0;right=0;pointerEvents=1;fontSize=16;" vertex="1" parent="SnXfCUuTCeVSRkXIkkFU-61">
          <mxGeometry x="30" width="30" height="26" as="geometry">
            <mxRectangle width="30" height="26" as="alternateBounds" />
          </mxGeometry>
        </mxCell>
        <mxCell id="SnXfCUuTCeVSRkXIkkFU-64" style="shape=tableRow;horizontal=0;startSize=0;swimlaneHead=0;swimlaneBody=0;strokeColor=inherit;top=0;left=0;bottom=0;right=0;collapsible=0;dropTarget=0;fillColor=none;points=[[0,0.5],[1,0.5]];portConstraint=eastwest;fontSize=16;" vertex="1" parent="SnXfCUuTCeVSRkXIkkFU-60">
          <mxGeometry y="26" width="60" height="28" as="geometry" />
        </mxCell>
        <mxCell id="SnXfCUuTCeVSRkXIkkFU-65" value="3" style="shape=partialRectangle;html=1;whiteSpace=wrap;connectable=0;strokeColor=#005700;overflow=hidden;fillColor=#008a00;top=0;left=0;bottom=0;right=0;pointerEvents=1;fontSize=16;fontColor=#ffffff;" vertex="1" parent="SnXfCUuTCeVSRkXIkkFU-64">
          <mxGeometry width="30" height="28" as="geometry">
            <mxRectangle width="30" height="28" as="alternateBounds" />
          </mxGeometry>
        </mxCell>
        <mxCell id="SnXfCUuTCeVSRkXIkkFU-66" value="2" style="shape=partialRectangle;html=1;whiteSpace=wrap;connectable=0;strokeColor=#314354;overflow=hidden;fillColor=#647687;top=0;left=0;bottom=0;right=0;pointerEvents=1;fontSize=16;fontColor=#ffffff;" vertex="1" parent="SnXfCUuTCeVSRkXIkkFU-64">
          <mxGeometry x="30" width="30" height="28" as="geometry">
            <mxRectangle width="30" height="28" as="alternateBounds" />
          </mxGeometry>
        </mxCell>
        <mxCell id="SnXfCUuTCeVSRkXIkkFU-67" style="shape=tableRow;horizontal=0;startSize=0;swimlaneHead=0;swimlaneBody=0;strokeColor=inherit;top=0;left=0;bottom=0;right=0;collapsible=0;dropTarget=0;fillColor=none;points=[[0,0.5],[1,0.5]];portConstraint=eastwest;fontSize=16;" vertex="1" parent="SnXfCUuTCeVSRkXIkkFU-60">
          <mxGeometry y="54" width="60" height="26" as="geometry" />
        </mxCell>
        <mxCell id="SnXfCUuTCeVSRkXIkkFU-68" value="4" style="shape=partialRectangle;html=1;whiteSpace=wrap;connectable=0;strokeColor=inherit;overflow=hidden;fillColor=none;top=0;left=0;bottom=0;right=0;pointerEvents=1;fontSize=16;" vertex="1" parent="SnXfCUuTCeVSRkXIkkFU-67">
          <mxGeometry width="30" height="26" as="geometry">
            <mxRectangle width="30" height="26" as="alternateBounds" />
          </mxGeometry>
        </mxCell>
        <mxCell id="SnXfCUuTCeVSRkXIkkFU-69" value="4" style="shape=partialRectangle;html=1;whiteSpace=wrap;connectable=0;strokeColor=inherit;overflow=hidden;fillColor=none;top=0;left=0;bottom=0;right=0;pointerEvents=1;fontSize=16;" vertex="1" parent="SnXfCUuTCeVSRkXIkkFU-67">
          <mxGeometry x="30" width="30" height="26" as="geometry">
            <mxRectangle width="30" height="26" as="alternateBounds" />
          </mxGeometry>
        </mxCell>
        <mxCell id="SnXfCUuTCeVSRkXIkkFU-70" style="shape=tableRow;horizontal=0;startSize=0;swimlaneHead=0;swimlaneBody=0;strokeColor=inherit;top=0;left=0;bottom=0;right=0;collapsible=0;dropTarget=0;fillColor=none;points=[[0,0.5],[1,0.5]];portConstraint=eastwest;fontSize=16;" vertex="1" parent="SnXfCUuTCeVSRkXIkkFU-60">
          <mxGeometry y="80" width="60" height="26" as="geometry" />
        </mxCell>
        <mxCell id="SnXfCUuTCeVSRkXIkkFU-71" value="5" style="shape=partialRectangle;html=1;whiteSpace=wrap;connectable=0;strokeColor=#005700;overflow=hidden;fillColor=#008a00;top=0;left=0;bottom=0;right=0;pointerEvents=1;fontSize=16;fontColor=#ffffff;" vertex="1" parent="SnXfCUuTCeVSRkXIkkFU-70">
          <mxGeometry width="30" height="26" as="geometry">
            <mxRectangle width="30" height="26" as="alternateBounds" />
          </mxGeometry>
        </mxCell>
        <mxCell id="SnXfCUuTCeVSRkXIkkFU-72" value="4" style="shape=partialRectangle;html=1;whiteSpace=wrap;connectable=0;strokeColor=#314354;overflow=hidden;fillColor=#647687;top=0;left=0;bottom=0;right=0;pointerEvents=1;fontSize=16;fontColor=#ffffff;" vertex="1" parent="SnXfCUuTCeVSRkXIkkFU-70">
          <mxGeometry x="30" width="30" height="26" as="geometry">
            <mxRectangle width="30" height="26" as="alternateBounds" />
          </mxGeometry>
        </mxCell>
        <mxCell id="SnXfCUuTCeVSRkXIkkFU-73" value="" style="shape=table;startSize=0;container=1;collapsible=0;childLayout=tableLayout;fontSize=16;" vertex="1" parent="1">
          <mxGeometry x="710" y="280" width="60" height="54" as="geometry" />
        </mxCell>
        <mxCell id="SnXfCUuTCeVSRkXIkkFU-74" style="shape=tableRow;horizontal=0;startSize=0;swimlaneHead=0;swimlaneBody=0;strokeColor=inherit;top=0;left=0;bottom=0;right=0;collapsible=0;dropTarget=0;fillColor=none;points=[[0,0.5],[1,0.5]];portConstraint=eastwest;fontSize=16;" vertex="1" parent="SnXfCUuTCeVSRkXIkkFU-73">
          <mxGeometry width="60" height="26" as="geometry" />
        </mxCell>
        <mxCell id="SnXfCUuTCeVSRkXIkkFU-75" value="2" style="shape=partialRectangle;html=1;whiteSpace=wrap;connectable=0;strokeColor=inherit;overflow=hidden;fillColor=none;top=0;left=0;bottom=0;right=0;pointerEvents=1;fontSize=16;" vertex="1" parent="SnXfCUuTCeVSRkXIkkFU-74">
          <mxGeometry width="30" height="26" as="geometry">
            <mxRectangle width="30" height="26" as="alternateBounds" />
          </mxGeometry>
        </mxCell>
        <mxCell id="SnXfCUuTCeVSRkXIkkFU-76" value="1" style="shape=partialRectangle;html=1;whiteSpace=wrap;connectable=0;strokeColor=inherit;overflow=hidden;fillColor=none;top=0;left=0;bottom=0;right=0;pointerEvents=1;fontSize=16;" vertex="1" parent="SnXfCUuTCeVSRkXIkkFU-74">
          <mxGeometry x="30" width="30" height="26" as="geometry">
            <mxRectangle width="30" height="26" as="alternateBounds" />
          </mxGeometry>
        </mxCell>
        <mxCell id="SnXfCUuTCeVSRkXIkkFU-77" style="shape=tableRow;horizontal=0;startSize=0;swimlaneHead=0;swimlaneBody=0;strokeColor=inherit;top=0;left=0;bottom=0;right=0;collapsible=0;dropTarget=0;fillColor=none;points=[[0,0.5],[1,0.5]];portConstraint=eastwest;fontSize=16;" vertex="1" parent="SnXfCUuTCeVSRkXIkkFU-73">
          <mxGeometry y="26" width="60" height="28" as="geometry" />
        </mxCell>
        <mxCell id="SnXfCUuTCeVSRkXIkkFU-78" value="6" style="shape=partialRectangle;html=1;whiteSpace=wrap;connectable=0;strokeColor=inherit;overflow=hidden;fillColor=none;top=0;left=0;bottom=0;right=0;pointerEvents=1;fontSize=16;" vertex="1" parent="SnXfCUuTCeVSRkXIkkFU-77">
          <mxGeometry width="30" height="28" as="geometry">
            <mxRectangle width="30" height="28" as="alternateBounds" />
          </mxGeometry>
        </mxCell>
        <mxCell id="SnXfCUuTCeVSRkXIkkFU-79" value="4" style="shape=partialRectangle;html=1;whiteSpace=wrap;connectable=0;strokeColor=inherit;overflow=hidden;fillColor=none;top=0;left=0;bottom=0;right=0;pointerEvents=1;fontSize=16;" vertex="1" parent="SnXfCUuTCeVSRkXIkkFU-77">
          <mxGeometry x="30" width="30" height="28" as="geometry">
            <mxRectangle width="30" height="28" as="alternateBounds" />
          </mxGeometry>
        </mxCell>
        <mxCell id="SnXfCUuTCeVSRkXIkkFU-83" value="" style="shape=table;startSize=0;container=1;collapsible=0;childLayout=tableLayout;fontSize=16;" vertex="1" parent="1">
          <mxGeometry x="710" y="460" width="60" height="54" as="geometry" />
        </mxCell>
        <mxCell id="SnXfCUuTCeVSRkXIkkFU-84" style="shape=tableRow;horizontal=0;startSize=0;swimlaneHead=0;swimlaneBody=0;strokeColor=inherit;top=0;left=0;bottom=0;right=0;collapsible=0;dropTarget=0;fillColor=none;points=[[0,0.5],[1,0.5]];portConstraint=eastwest;fontSize=16;" vertex="1" parent="SnXfCUuTCeVSRkXIkkFU-83">
          <mxGeometry width="60" height="26" as="geometry" />
        </mxCell>
        <mxCell id="SnXfCUuTCeVSRkXIkkFU-85" value="3" style="shape=partialRectangle;html=1;whiteSpace=wrap;connectable=0;strokeColor=inherit;overflow=hidden;fillColor=none;top=0;left=0;bottom=0;right=0;pointerEvents=1;fontSize=16;" vertex="1" parent="SnXfCUuTCeVSRkXIkkFU-84">
          <mxGeometry width="30" height="26" as="geometry">
            <mxRectangle width="30" height="26" as="alternateBounds" />
          </mxGeometry>
        </mxCell>
        <mxCell id="SnXfCUuTCeVSRkXIkkFU-86" value="2" style="shape=partialRectangle;html=1;whiteSpace=wrap;connectable=0;strokeColor=inherit;overflow=hidden;fillColor=none;top=0;left=0;bottom=0;right=0;pointerEvents=1;fontSize=16;" vertex="1" parent="SnXfCUuTCeVSRkXIkkFU-84">
          <mxGeometry x="30" width="30" height="26" as="geometry">
            <mxRectangle width="30" height="26" as="alternateBounds" />
          </mxGeometry>
        </mxCell>
        <mxCell id="SnXfCUuTCeVSRkXIkkFU-87" style="shape=tableRow;horizontal=0;startSize=0;swimlaneHead=0;swimlaneBody=0;strokeColor=inherit;top=0;left=0;bottom=0;right=0;collapsible=0;dropTarget=0;fillColor=none;points=[[0,0.5],[1,0.5]];portConstraint=eastwest;fontSize=16;" vertex="1" parent="SnXfCUuTCeVSRkXIkkFU-83">
          <mxGeometry y="26" width="60" height="28" as="geometry" />
        </mxCell>
        <mxCell id="SnXfCUuTCeVSRkXIkkFU-88" value="5" style="shape=partialRectangle;html=1;whiteSpace=wrap;connectable=0;strokeColor=inherit;overflow=hidden;fillColor=none;top=0;left=0;bottom=0;right=0;pointerEvents=1;fontSize=16;" vertex="1" parent="SnXfCUuTCeVSRkXIkkFU-87">
          <mxGeometry width="30" height="28" as="geometry">
            <mxRectangle width="30" height="28" as="alternateBounds" />
          </mxGeometry>
        </mxCell>
        <mxCell id="SnXfCUuTCeVSRkXIkkFU-89" value="4" style="shape=partialRectangle;html=1;whiteSpace=wrap;connectable=0;strokeColor=inherit;overflow=hidden;fillColor=none;top=0;left=0;bottom=0;right=0;pointerEvents=1;fontSize=16;" vertex="1" parent="SnXfCUuTCeVSRkXIkkFU-87">
          <mxGeometry x="30" width="30" height="28" as="geometry">
            <mxRectangle width="30" height="28" as="alternateBounds" />
          </mxGeometry>
        </mxCell>
        <mxCell id="SnXfCUuTCeVSRkXIkkFU-101" value="Node 0 GPU 0" style="whiteSpace=wrap;html=1;fontStyle=1;strokeColor=none;flipV=0;flipH=1;rotation=-90;fillColor=none;fontSize=16;" vertex="1" parent="1">
          <mxGeometry x="-56.87" y="349.38" width="163.75" height="20" as="geometry" />
        </mxCell>
        <mxCell id="SnXfCUuTCeVSRkXIkkFU-103" value="Path" style="whiteSpace=wrap;html=1;fontStyle=0;strokeColor=none;flipV=0;flipH=1;rotation=0;fillColor=none;fontSize=16;" vertex="1" parent="1">
          <mxGeometry x="45" y="202" width="50" height="20" as="geometry" />
        </mxCell>
        <mxCell id="SnXfCUuTCeVSRkXIkkFU-104" value="Path" style="whiteSpace=wrap;html=1;fontStyle=0;strokeColor=none;flipV=0;flipH=1;rotation=0;fillColor=none;fontSize=16;" vertex="1" parent="1">
          <mxGeometry x="193" y="202" width="50" height="20" as="geometry" />
        </mxCell>
        <mxCell id="SnXfCUuTCeVSRkXIkkFU-105" value="(distributed)" style="whiteSpace=wrap;html=1;fontStyle=0;strokeColor=none;flipV=0;flipH=1;rotation=0;fillColor=none;fontSize=13;" vertex="1" parent="1">
          <mxGeometry x="190" y="222" width="60" height="20" as="geometry" />
        </mxCell>
        <mxCell id="SnXfCUuTCeVSRkXIkkFU-145" style="edgeStyle=orthogonalEdgeStyle;rounded=0;orthogonalLoop=1;jettySize=auto;html=1;entryX=0.5;entryY=0;entryDx=0;entryDy=0;curved=1;dashed=1;dashPattern=8 8;" edge="1" parent="1" source="SnXfCUuTCeVSRkXIkkFU-106" target="SnXfCUuTCeVSRkXIkkFU-114">
          <mxGeometry relative="1" as="geometry">
            <Array as="points">
              <mxPoint x="310" y="182" />
              <mxPoint x="650" y="182" />
            </Array>
          </mxGeometry>
        </mxCell>
        <mxCell id="SnXfCUuTCeVSRkXIkkFU-106" value="T&lt;span style=&quot;font-size: 11.1111px;&quot;&gt;∆&lt;/span&gt;" style="whiteSpace=wrap;html=1;fontStyle=0;strokeColor=none;flipV=0;flipH=1;rotation=0;fillColor=none;fontSize=16;" vertex="1" parent="1">
          <mxGeometry x="285" y="202" width="50" height="20" as="geometry" />
        </mxCell>
        <mxCell id="SnXfCUuTCeVSRkXIkkFU-107" value="(initial CC)" style="whiteSpace=wrap;html=1;fontStyle=0;strokeColor=none;flipV=0;flipH=1;rotation=0;fillColor=none;fontSize=13;" vertex="1" parent="1">
          <mxGeometry x="270" y="222" width="80" height="20" as="geometry" />
        </mxCell>
        <mxCell id="SnXfCUuTCeVSRkXIkkFU-109" value="(local)" style="whiteSpace=wrap;html=1;fontStyle=0;strokeColor=none;flipV=0;flipH=1;rotation=0;fillColor=none;fontSize=13;" vertex="1" parent="1">
          <mxGeometry x="370" y="222" width="60" height="20" as="geometry" />
        </mxCell>
        <mxCell id="SnXfCUuTCeVSRkXIkkFU-110" value="T&lt;span style=&quot;font-size: 11.1111px;&quot;&gt;join&lt;/span&gt;" style="whiteSpace=wrap;html=1;fontStyle=0;strokeColor=none;flipV=0;flipH=1;rotation=0;fillColor=none;fontSize=16;" vertex="1" parent="1">
          <mxGeometry x="375" y="202" width="50" height="20" as="geometry" />
        </mxCell>
        <mxCell id="SnXfCUuTCeVSRkXIkkFU-111" value="(local)" style="whiteSpace=wrap;html=1;fontStyle=0;strokeColor=none;flipV=0;flipH=1;rotation=0;fillColor=none;fontSize=13;" vertex="1" parent="1">
          <mxGeometry x="40" y="222" width="60" height="20" as="geometry" />
        </mxCell>
        <mxCell id="SnXfCUuTCeVSRkXIkkFU-112" value="(distributed)" style="whiteSpace=wrap;html=1;fontStyle=0;strokeColor=none;flipV=0;flipH=1;rotation=0;fillColor=none;fontSize=13;" vertex="1" parent="1">
          <mxGeometry x="526" y="222" width="60" height="20" as="geometry" />
        </mxCell>
        <mxCell id="SnXfCUuTCeVSRkXIkkFU-113" value="T&lt;span style=&quot;font-size: 11.1111px;&quot;&gt;join&lt;/span&gt;" style="whiteSpace=wrap;html=1;fontStyle=0;strokeColor=none;flipV=0;flipH=1;rotation=0;fillColor=none;fontSize=16;" vertex="1" parent="1">
          <mxGeometry x="531" y="207" width="50" height="10" as="geometry" />
        </mxCell>
        <mxCell id="SnXfCUuTCeVSRkXIkkFU-114" value="New&lt;span style=&quot;font-size: 11.1111px;&quot;&gt;T&lt;/span&gt;" style="whiteSpace=wrap;html=1;fontStyle=0;strokeColor=none;flipV=0;flipH=1;rotation=0;fillColor=none;fontSize=16;" vertex="1" parent="1">
          <mxGeometry x="625" y="202" width="50" height="20" as="geometry" />
        </mxCell>
        <mxCell id="SnXfCUuTCeVSRkXIkkFU-116" value="T&lt;span style=&quot;font-size: 11.1111px;&quot;&gt;∆&lt;/span&gt;" style="whiteSpace=wrap;html=1;fontStyle=0;strokeColor=none;flipV=0;flipH=1;rotation=0;fillColor=none;fontSize=16;" vertex="1" parent="1">
          <mxGeometry x="715" y="202" width="50" height="20" as="geometry" />
        </mxCell>
        <mxCell id="SnXfCUuTCeVSRkXIkkFU-144" style="edgeStyle=orthogonalEdgeStyle;rounded=0;orthogonalLoop=1;jettySize=auto;html=1;entryX=0.5;entryY=1;entryDx=0;entryDy=0;dashed=1;strokeColor=#000000;curved=1;dashPattern=8 8;" edge="1" parent="1" source="SnXfCUuTCeVSRkXIkkFU-117" target="SnXfCUuTCeVSRkXIkkFU-107">
          <mxGeometry relative="1" as="geometry">
            <Array as="points">
              <mxPoint x="740" y="262" />
              <mxPoint x="310" y="262" />
            </Array>
          </mxGeometry>
        </mxCell>
        <mxCell id="SnXfCUuTCeVSRkXIkkFU-117" value="(New&lt;sub&gt;T&lt;/sub&gt; - T&lt;sub&gt;∆&lt;/sub&gt;)" style="whiteSpace=wrap;html=1;fontStyle=0;strokeColor=none;flipV=0;flipH=1;rotation=0;fillColor=none;fontSize=13;" vertex="1" parent="1">
          <mxGeometry x="705" y="222" width="70" height="20" as="geometry" />
        </mxCell>
        <mxCell id="SnXfCUuTCeVSRkXIkkFU-118" value="(updated CC)" style="whiteSpace=wrap;html=1;fontStyle=0;strokeColor=none;flipV=0;flipH=1;rotation=0;fillColor=none;fontSize=13;" vertex="1" parent="1">
          <mxGeometry x="605" y="222" width="90" height="20" as="geometry" />
        </mxCell>
        <mxCell id="SnXfCUuTCeVSRkXIkkFU-119" value="Inner" style="rounded=1;arcSize=10;whiteSpace=wrap;html=1;align=center;fontSize=14;fillColor=#0050ef;strokeColor=#001DBC;fontColor=#ffffff;" vertex="1" parent="1">
          <mxGeometry x="177.5" y="420" width="81" height="20" as="geometry" />
        </mxCell>
        <mxCell id="SnXfCUuTCeVSRkXIkkFU-120" value="Outer" style="rounded=1;arcSize=10;whiteSpace=wrap;html=1;align=center;fontSize=14;fillColor=#0050ef;strokeColor=#001DBC;fontColor=#ffffff;" vertex="1" parent="1">
          <mxGeometry x="270" y="420" width="81" height="20" as="geometry" />
        </mxCell>
        <mxCell id="SnXfCUuTCeVSRkXIkkFU-121" value="&lt;b&gt;⨝&lt;/b&gt;" style="whiteSpace=wrap;html=1;fontStyle=0;flipV=0;flipH=1;rotation=0;fontSize=16;fillColor=#0050ef;fontColor=#ffffff;strokeColor=#001DBC;" vertex="1" parent="1">
          <mxGeometry x="258.5" y="202" width="25" height="20" as="geometry" />
        </mxCell>
        <mxCell id="SnXfCUuTCeVSRkXIkkFU-129" style="edgeStyle=orthogonalEdgeStyle;rounded=0;orthogonalLoop=1;jettySize=auto;html=1;exitX=1;exitY=0.5;exitDx=0;exitDy=0;entryX=0;entryY=0.5;entryDx=0;entryDy=0;strokeWidth=3;" edge="1" parent="1" source="SnXfCUuTCeVSRkXIkkFU-122" target="SnXfCUuTCeVSRkXIkkFU-124">
          <mxGeometry relative="1" as="geometry" />
        </mxCell>
        <mxCell id="SnXfCUuTCeVSRkXIkkFU-122" value="Balanced&lt;div&gt;File Read&lt;/div&gt;" style="rounded=1;whiteSpace=wrap;html=1;fontSize=16;fillColor=#fff2cc;strokeColor=#d6b656;" vertex="1" parent="1">
          <mxGeometry x="15" y="122" width="110" height="50" as="geometry" />
        </mxCell>
        <mxCell id="SnXfCUuTCeVSRkXIkkFU-130" style="edgeStyle=orthogonalEdgeStyle;rounded=0;orthogonalLoop=1;jettySize=auto;html=1;strokeWidth=3;" edge="1" parent="1" source="SnXfCUuTCeVSRkXIkkFU-124" target="SnXfCUuTCeVSRkXIkkFU-125">
          <mxGeometry relative="1" as="geometry" />
        </mxCell>
        <mxCell id="SnXfCUuTCeVSRkXIkkFU-124" value="Data Distribution" style="rounded=1;whiteSpace=wrap;html=1;fontSize=16;fillColor=#fff2cc;strokeColor=#d6b656;" vertex="1" parent="1">
          <mxGeometry x="160" y="122" width="110" height="50" as="geometry" />
        </mxCell>
        <mxCell id="SnXfCUuTCeVSRkXIkkFU-131" style="edgeStyle=orthogonalEdgeStyle;rounded=0;orthogonalLoop=1;jettySize=auto;html=1;exitX=1;exitY=0.5;exitDx=0;exitDy=0;strokeWidth=3;" edge="1" parent="1" source="SnXfCUuTCeVSRkXIkkFU-125" target="SnXfCUuTCeVSRkXIkkFU-126">
          <mxGeometry relative="1" as="geometry" />
        </mxCell>
        <mxCell id="SnXfCUuTCeVSRkXIkkFU-125" value="Local Join" style="rounded=1;whiteSpace=wrap;html=1;fontSize=16;fillColor=#fff2cc;strokeColor=#d6b656;" vertex="1" parent="1">
          <mxGeometry x="302.5" y="122" width="110" height="50" as="geometry" />
        </mxCell>
        <mxCell id="SnXfCUuTCeVSRkXIkkFU-132" style="edgeStyle=orthogonalEdgeStyle;rounded=0;orthogonalLoop=1;jettySize=auto;html=1;entryX=0;entryY=0.5;entryDx=0;entryDy=0;strokeWidth=3;" edge="1" parent="1" source="SnXfCUuTCeVSRkXIkkFU-126" target="SnXfCUuTCeVSRkXIkkFU-127">
          <mxGeometry relative="1" as="geometry" />
        </mxCell>
        <mxCell id="SnXfCUuTCeVSRkXIkkFU-126" value="Join Result&lt;div&gt;Distribution&lt;/div&gt;" style="rounded=1;whiteSpace=wrap;html=1;fontSize=16;fillColor=#fff2cc;strokeColor=#d6b656;" vertex="1" parent="1">
          <mxGeometry x="460" y="122" width="110" height="50" as="geometry" />
        </mxCell>
        <mxCell id="SnXfCUuTCeVSRkXIkkFU-127" value="Local Aggregation" style="rounded=1;whiteSpace=wrap;html=1;fontSize=16;fillColor=#fff2cc;strokeColor=#d6b656;" vertex="1" parent="1">
          <mxGeometry x="630" y="122" width="110" height="50" as="geometry" />
        </mxCell>
        <mxCell id="SnXfCUuTCeVSRkXIkkFU-128" value="Node 1 GPU 0" style="whiteSpace=wrap;html=1;fontStyle=1;strokeColor=none;flipV=0;flipH=1;rotation=-90;fillColor=none;fontSize=16;" vertex="1" parent="1">
          <mxGeometry x="-56.87" y="529" width="163.75" height="20" as="geometry" />
        </mxCell>
        <mxCell id="SnXfCUuTCeVSRkXIkkFU-133" value="ID" style="shape=document;whiteSpace=wrap;html=1;boundedLbl=1;fillColor=#647687;strokeColor=#314354;fontColor=#ffffff;" vertex="1" parent="1">
          <mxGeometry x="310" y="390" width="30" height="20" as="geometry" />
        </mxCell>
        <mxCell id="SnXfCUuTCeVSRkXIkkFU-136" value="ID 1 &amp;lt; 2&lt;div&gt;ID 4 &amp;lt; 6&lt;/div&gt;" style="shape=document;whiteSpace=wrap;html=1;boundedLbl=1;fillColor=#647687;strokeColor=#314354;fontColor=#ffffff;" vertex="1" parent="1">
          <mxGeometry x="620" y="390" width="60" height="40" as="geometry" />
        </mxCell>
        <mxCell id="SnXfCUuTCeVSRkXIkkFU-137" value="MPI_Alltoallv" style="shape=document;whiteSpace=wrap;html=1;boundedLbl=1;fillColor=#fff2cc;strokeColor=#d6b656;" vertex="1" parent="1">
          <mxGeometry x="440" y="260" width="75" height="20" as="geometry" />
        </mxCell>
        <mxCell id="SnXfCUuTCeVSRkXIkkFU-147" value="ID 2 &amp;lt; 3&lt;div&gt;ID 4 &amp;lt; 5&lt;/div&gt;" style="shape=document;whiteSpace=wrap;html=1;boundedLbl=1;fillColor=#647687;strokeColor=#314354;fontColor=#ffffff;" vertex="1" parent="1">
          <mxGeometry x="620" y="578" width="60" height="40" as="geometry" />
        </mxCell>
        <mxCell id="SnXfCUuTCeVSRkXIkkFU-149" value="Node" style="shape=document;whiteSpace=wrap;html=1;boundedLbl=1;fillColor=#008a00;strokeColor=#005700;fontColor=#ffffff;" vertex="1" parent="1">
          <mxGeometry x="280" y="390" width="30" height="20" as="geometry" />
        </mxCell>
        <mxCell id="SnXfCUuTCeVSRkXIkkFU-151" value="MPI_Alltoallv" style="shape=document;whiteSpace=wrap;html=1;boundedLbl=1;fillColor=#fff2cc;strokeColor=#d6b656;" vertex="1" parent="1">
          <mxGeometry x="106.88" y="260" width="75" height="20" as="geometry" />
        </mxCell>
      </root>
    </mxGraphModel>
  </diagram>
</mxfile>
